<?xml version="1.0" encoding="UTF-8"?>
<svg version="1.1" viewBox="0 0 1600 940" width="1280" height="1280" xmlns="http://www.w3.org/2000/svg">
<path transform="translate(0)" d="m0 0h1600v940h-1600z" fill="#FCFDFD"/>
<path transform="translate(1345,375)" d="m0 0h7l21 6 9 6 16 15 11 9 12 11 4 5v11l-2 10-1 12-1 3-2 16-1 3-8 1-2 23-1 18-1 7-1 18-1 7-3 43-8 102 4 1 7 6 5 10 3 12 1 8v23l17 1 23 3 7 3 3 3-1 4-10 7-19 9-16 8-8 3-3 2 16 4 2 2-12 7h-2l-2 4-5 3-14 3v2l-9 4-14 7-7 2h-13l-21-3-115-11-47-4v-1h18l88 8 41 4h13l-13-2-55-5-13-2-22-1-6-1-52-2-26-3-5-3v-2l-3-1 7-5-10-7-4-7-5-30-25-174-12-82-2-20h-11l-2-5-14-62v-7l4-5 6-2 67-8 17-2 16-1 49-6 69-7 61-7z" fill="#FDD411"/>
<path transform="translate(405,384)" d="m0 0 5 1v13l10 2 10 4 6 4-2-16 4 1 14 13 8 7 14 12 8 7 3 4v10l-6 45h-9v10l-5 58-8 102-2 20-2 29 7 2 6 8 3 6 3 13 1 7v24h12l26 3 8 3 4 3v4l-9 6-21 11-10 4-15 8-3 1 14 3 4 2-4 4-10 6-5 4-10 3h-5v3h-8l-10-4-2-2-5 1-12 6-11 4h-19l-136-10-43-4-9-2-4-4 1-4 3-3-8-6-5-10-5-32-18-124-20-139-2-8-9-1-3-9-13-55v-10l7-6 37-4 24-3 13-1 25-3 44-5 39-4 27-3h9v-2l14-1 4-1 35-3 10-1z" fill="#00FC52"/>
<path transform="translate(868,399)" d="m0 0h9v25l-1 33v19l23 4 6 1 3-58 1-9 5 2 36 26 3 2-3 26-3 21h-9v9l-4 48-13 162 7 2 5 6 3 5v5h2l3 18v24h12l26 3 9 3v2h2v5l-7 6-16 8-16 7-18 9 14 3 5 2-5 4-11 7-7 4-11 3-1 2h-8l-12-5v-2l-10 4-14 7-4 1h-19l-104-9-76-6-10-2-2-3 1-4 4-1-3-3-7-6-3-5-3-12-5-37-3-17-4-30-4-29-3-20-7-49-9-62-4-25-3-23v-4h-7l3-1-6-24-8-37 1-3 74-9 126-14 60-7z" fill="#559EFE"/>
<path transform="translate(1275,38)" d="m0 0h17l7 3 4 5v11l-2 6-1 14v27l4 7 3 4 6-1 19-10 16-10v3l-9 12-15 16-4 3 2 6 4 9 1 4v22l-2 33v18l14-9 10-8 8-9 6-12 2-9 6-10 6-4 6 1 3 4 5 25 4 31v17l-4-1-2-16-3-20-3-12v-4h-2l-2 5-4 5-6 11-9 17-4 10-4 8-3 7-7 18 35-12 7-2 4-1h17l16 5 19 10 7 2h7l11-3 20-6 12-4 8-5 10-3 5 2 7 10 3 11v11l-1 4-9 4-6 2-12 2-29 9-10 5-6 7-10 20-8 11-9 9-14 7-48 16-2 1h-10l-4-1-13 1-89 10-41 4-49 6h-8l-4-4-12-7-20-13-3-2v-2l20-3 1-1-7-3-11-7-7-7-8-16-4-16v-11l-3 1-22 2h-13l2-10 5-12-17-2 1-11 3-7 4-5 14-10 8-4h2l-1-2-1-12-4-4v-2l13-5 19-10 14-8 11-7 5-7 3-10v-21l-2-10 4 2 4 4v2l9 1 9 11 14 19 16 21v2h2l6-17 1-1 13-1 4-1h9l2-39 2-11 6-12 9-10 15-14 3-9 2-36-1-1 1-15 5-5z" fill="#7C8671"/>
<path transform="translate(784,61)" d="m0 0 17 4 7 1 1-5 22 1v5l9-2 3 6-1 10-8 41v7l10-9 13-12 11-9 5-6 7 2 6-6h7l9 6 7 6 6 8-1 2-15-15-7-4-5 1 7 3 11 9 11 11 10 15 8 16 1 4v7h-2l-1-8-5-12-10-14-11-9-8-7-4 1-3 2v5l13 9 16 10 1 2-6-2-19-11-7-6-4-7-1-12-2 3v10l5 9 10 7 14 6 10 7 6 7 2 6 2 12-8 11-11 7-15 8-19 12h-3l1-9 2-6v-21l-1-1h-6l-3 1v-3l8-2 9-7 1-2h-26l-26 2-13 3-9 7-6 7-2 3v13l4 4v2l12 2-4 17-2 11-4 6-11 13-10 8-11 7-10 5-9 3-11-2-10-11-2-1-3 9-16 33-9 13 1 5 10 14 2 3 11-1 3 3v5h2l1 18 8 11 9 16 3 6-2 4-12 7-20 2-4-1 16-10 8-6-1-4-9-16-15-22-12-17-5-8-7 6-1 2 13 19 18 27 2 4-1 4-10 9-18 13-5 3-9 1 4-4 11-8 10-8 10-9-6-12-8-12-13-18-4-6-11 1 4 7 2 3-1 5-14 19-11 12-7 8-9 9-11 9-7 5-8-21-13-24-11-17-10-13-2-5 3-18 5-17 12-25 9-13 8-10 6-6-2-4-1-4-5 5-10 12-11 17-8 16-5 13-5 22-1 5v11l22 33 11 19 8 20 2 10-5 1-7-24-9-19-14-22-13-19v-11l3-18 5-18 7-16 10-16 11-14 9-10-1-5v-4l8-9 7-14 9-30 12-42h3l8 10 4 13 6-10 11-12 16-12 12-7 6-2h7l-1 7-7 9-11 9-5 5-10 8-6 4-3-1 3-2-3-1-1-5 6-5 4 2-1 5 8-6 6-5 1-3-7 6-6 1 1-5 4-4-5 2-6 5-7 8-7 10-1 3h-4l2 7 2-1 11-1 10-5 13-9 5-4h2l1-4h-5l2-4 8-8 6-7 2 4 6-10 6 1 8 6 8 10 9 11 11 14 9 11 9 10 3-15h-4v2l-10-1v-6l7 1 8 2 1-6v-8l-5-1v3h-8l-9-3 1-7 13 2 11 2v-2l-20-4-3-1v-5l3-1 12 3h10l-20-4-9-3 1-5 11 2 18 3 1-12 5-20-8-2h-8l-16 8 2-12 2-7 20 5 9 2v-3l-15-3-12-4 2-6z" fill="#508998"/>
<path transform="translate(273,141)" d="m0 0h11l9 5 2 23 3 15 3 5 13 2 14 7 10 9 10 11 9 15 6 12 3 7 5 12 2 5h2l-1-14 7 1v3l7-4 8-4 7-1v-2l-5-1-6-4v-2l-4-2-7-8-3-5v-4h-2l-3-7v-11l9-13 6-8 6 1h3l7-13 11-9 7-4 15 8h6l4-2 5 1 9 8 5 11 4 14v20l-4 14-6 10-9 8-10 5-5 1h-13l-4-1 9 12 2 5v5l-6 1h-9l-8-2-20-11-3-2-1 18 5 2 10 3 2 1v-2l9-1h21l17 5 19 10 15 11 2 1 2 5 5 5 5 8 1 3v12l-3 1h-7l-5-4-15-3-31-4-39-6-16-3-3 11-9 19-2 2 1 9 2 4 5 2 7 2 14 2 3 2-2 4-4 4-24 3-14 1-4 1h-14v2l-73 8-31 3-15 2-25 3-23 2h-10l-16-4-10-4-8-7-3-8-1-12h5l6 5h17l4-3v-9l-3-12-2-2 1-8 2-5 1 4-1 3 1 2h2l5-9v-9l-6 5v-6l2-4-1-5-3-5-2-6-7-3-3-2 1-4 9-7 7-3 9-1 16 3-2-14-2-7v-6l7 1 2 4 10-6 5-2h12l7 3 7 7 6 10 1 5-2 2h-17l-16-8-13-7 1 2v18l8 1 10 4 10 9 4 6v3l19-5 8-1 4-4h4l2-4 4-2v-9l-3-13v-26l4-13 11-24 4-10 2-6v-8l-15-33-4-9v-5l8-5z" fill="#FDD117"/>
<path transform="translate(1345,375)" d="m0 0h7l21 6 9 6 16 15 11 9 12 11 4 5v11l-2 10-1 12-1 3-2 16-1 3-8 1-2 23-1 18-1 7-1 18-1 7-3 43-8 102 4 1 7 6 5 10 3 12 1 8v23l17 1 23 3 7 3 3 3-1 4-10 7-19 9-16 8-8 3-3 2 16 4 2 2-12 7h-2l-2 4-5 3-14 3v2l-9 4-14 7-7 2h-13l-21-3-115-11-47-4v-1h18l88 8 41 4h13l-13-2-55-5-13-2-22-1-6-1-52-2-26-3-5-3v-2l-3-1 7-5-10-7-4-7-5-30-25-174-12-82-2-20h-11l-2-5-14-62v-7l4-5 6-2 67-8 17-2 16-1 49-6 69-7 61-7zm-4 16-31 4-125 14-36 4-50 6-38 4-1 4 7 30 6 30h10l10-1 2-1 1 14 6 42 10 66 9 67 5 35 3 16 8 58 3 15v9l9 3 34 4 63 6 56 6h20v-2h2l3-73 4-157 3-94 1-22v-12h11l1-13 1-39v-23z" fill="#FDE783"/>
<path transform="translate(868,399)" d="m0 0h9v25l-1 33v19l23 4 6 1 3-58 1-9 5 2 36 26 3 2-3 26-3 21h-9v9l-4 48-13 162 7 2 5 6 3 5v5h2l3 18v24h12l26 3 9 3v2h2v5l-7 6-16 8-16 7-18 9 14 3 5 2-5 4-11 7-7 4-11 3-1 2h-8l-12-5v-2l-10 4-14 7-4 1h-19l-104-9-76-6-10-2-2-3 1-4 4-2 41 4 130 13h17l11-5 10-6 7-7 1-5 7-164 5-127v-25l-18-4-67 5-176 12-24 1-2-9v-4h-7l3-1-6-24-8-37 1-3 74-9 126-14 60-7z" fill="#3A70B4"/>
<path transform="translate(814,222)" d="m0 0h1l1 14-6 8-4 4 16-5 17-4 8-1h9l7 3 4 4-1 13-2 11-8-6-6-2h-15l-11 2-1 1 2 12 4 8 6 2 8 2 3 2v2l-7-2h-5l-9 5 15 1 8 4 2 3 14-3h5l2-4 6-9 8-7 12-6 7-1-1-6 2-5 2-10 1-1h11l13 4 6 5 1 5-1 7v6l-3 3h-2l6 8 4 10v9l-5 10-8 9h-2l-1 4-5 5h-2l-2 5-9 6-13 7-6 7-1 2h-2l2-6 8-7 17-9 2-2h-7l-19 12-8 9-1 2 7 2 1 1 7 1 2 4v12l-1 7 6 1 2 1v2l4 2 7 7 8 7 11 10 10 8 8 8v9l-9-5-13-10-20-14-2-1-1 29-2 38-2 1-20-4-8-1-1-1v-19l2-58-266 30-23 3 5 26 8 33v4l4 1-1 2-10-2-11-43-4-19-1-3v-8l4-5 3-2 25-3 7-1-7-21-8-16-10-17-19-28v-11l5-23 5-15 8-16 10-16 11-14 5-6h2l4 6-2 4-7 7-10 14-8 14-8 17-5 17-3 20 15 20 14 24 8 15 6 17h2l13-11 10-9 7-7 9-11 7-8 11-15-1-6-4-5v-3l11-2 13 18 7 10 10 16 2 5-8 8-14 11-13 9 10-2 14-10 14-11 3-3-1-5-10-16-16-23-6-9 6-7 3-2 13 19 12 17 12 19 6 10-1 4-14 10-8 5 22-2 12-7 1-3-10-19-10-14v-18h-2l-2-6-3-1-9 1-8-11-6-9 1-4 9-14 11-22 8-18 4 2 8 9 11 2 14-5 13-8 12-9 9-10 6-9z" fill="#FCFDFD"/>
<path transform="translate(434,392)" d="m0 0 4 1 14 13 8 7 14 12 8 7 3 4v10l-6 45h-9v10l-5 58-8 102-2 20-2 29 7 2 6 8 3 6 3 13 1 7v24h12l26 3 8 3 4 3v4l-9 6-21 11-10 4-15 8-3 1 14 3 4 2-4 4-10 6-5 4-10 3h-5v3h-8l-10-4-2-2-5 1-12 6-11 4h-19l-136-10-43-4-9-2-4-4 1-4 5-3 17 3 83 8 29 3 38 4h19l4-2 2-81 3-89 1-52 2-53 1-45v-35l1-1h8l4 1 1-57v-22l11 2 10 4 6 4z" fill="#58FC9C"/>
<path transform="translate(1377,159)" d="m0 0 6 1 3 4 5 25 4 31v17l-4-1-2-16-3-20-3-12v-4h-2l-2 5-4 5-6 11-9 17-4 10-4 8-3 7-7 18 35-12 7-2 4-1h17l16 5 19 10 7 2h7l11-3 20-6 12-4 8-5 10-3 5 2 7 10 3 11v11l-1 4-9 4-6 2-12 2-29 9-10 5-6 7-10 20-8 11-9 9-14 7-48 16-2 1h-10l-4-1-13 1-89 10-41 4-43 5-5-1-19-11-14-10-1-2 22 1h28l13-4 9-7 5-12 7-19 7-11 10-10 8-7 5-5 4-2 9 1 15 2h17l12-2 12-5 6-5 3-6 3-39 1-24 2 2 14-9 10-8 8-9 6-12 2-9 6-10z" fill="#8AD7FD"/>
<path transform="translate(405,384)" d="m0 0 5 1v35l-1 51-1 6h-12l-1 15-72 5-158 11-15 1h-11l-3-12-9-1-3-9-13-55v-10l7-6 37-4 24-3 13-1 25-3 44-5 39-4 27-3h9v-2l14-1 4-1 35-3 10-1z" fill="#00FC52"/>
<path transform="translate(1341,391)" d="m0 0h7v23l-1 39-1 13h-11v12l-1 5-4 1-53 4-108 7-57 4h-16l-1-14-2 1-10 1h-10l-8-39-5-21 1-4 72-8 40-5 39-4 60-7 38-4z" fill="#FED411"/>
<path transform="translate(868,399)" d="m0 0h9v25l-2 52-36 2-172 13-41 3-3 1-17 1-1 2v-2h-7l3-1-6-24-8-37 1-3 74-9 126-14 60-7z" fill="#559EFE"/>
<path transform="translate(1138,149)" d="m0 0 4 2 4 4v2l9 1 9 11 14 19 16 21v2h2l6-17 1-1 13-1 4-1h9l-1 25-4 62h2l4 10v3h-6l-6 8-10 12-8 13-8 15-5 9-9 10-11 4-15 3-10-1-13-4-7-5-9-12-5-10-4-14v-15l4-17 8-13 8-7 8-4 12-3 10-8-4-6-3-3-10-4h-28l-22 6-6 2-1-2-1-12-4-4v-2l13-5 19-10 14-8 11-7 5-7 3-10v-21z" fill="#38B6AE"/>
<path transform="translate(617,229)" d="m0 0h2l4 6-2 4-7 7-10 14-8 14-8 17-5 17-3 20 15 20 14 24 8 15 6 17h2l13-11 10-9 7-7 9-11 7-8 11-15-1-6-4-5v-3l11-2 13 18 7 10 10 16 2 5-8 8-14 11-13 9 10-2 14-10 14-11 3-3-1-5-10-16-16-23-6-9 6-7 3-2 13 19 12 17 12 19 6 10-1 4-14 10-8 5 22-2 3-1h10l44-5 5-1 14-1 12-2 19-2h5l1-4 9-16 10-15-1-2-10-5-7-8 1-4 4 1 7 6 9 4h5l9-6-2-2-16-8-2-4 6 1 10 3 7 3h5v-3l-17-7-4-3 1-4 6 1 18 7 14 4 2 3-7 6-1 2 10-2-1 2h-2l-2 5-9 6-13 7-6 7-1 2h-2l2-6 8-7 17-9 2-2h-7l-19 12-8 9-1 2 7 2 1 1 7 1 2 4v12l-1 7 6 1 2 1v2l4 2 7 7 8 7 11 10 10 8 8 8v9l-9-5-13-10-20-14-2-1-1 29-2 38-2 1-20-4-8-1-1-1v-19l2-58-266 30-23 3 5 26 8 33v4l4 1-1 2-10-2-11-43-4-19-1-3v-8l4-5 3-2 25-3 7-1-7-21-8-16-10-17-19-28v-11l5-23 5-15 8-16 10-16 11-14z" fill="#93C4FE"/>
<path transform="translate(434,392)" d="m0 0 4 1 14 13 8 7 14 12 8 7 3 4v10l-6 45h-9v10l-5 58-8 102-2 20-2 29 2 1-7 1-5 5-4 5-6 13-4 15-2 13v35l-18 21-7 3-6 3h-2l2-4 7-6 2-3 2-37 1-39 2-36 3-66 1-38 3-66 1-38 1-3 1-11 11 2v-15l1-19 1-36 3-1z" fill="#00B554"/>
<path transform="translate(784,61)" d="m0 0 17 4 7 1 1-5 22 1v5l9-2 3 6-1 10-8 41v7l10-9 13-12 11-9 5-6 7 2 6-6h7l9 6 7 6 6 8-1 2-15-15-7-4-5 1 7 3 11 9 11 11 10 15 8 16 1 4v7h-2l-1-8-5-12-10-14-11-9-8-7-4 1-3 2v5l13 9 16 10 1 2-6-2-19-11-7-6-4-7-1-12-2 3v10l5 9 10 7 14 6 10 7 6 7 2 6 2 12-8 11-11 7-15 8-19 12h-3l1-9 2-6v-21l-1-1h-6l-3 1v-3l8-2 9-7 1-2h-26l-26 2-13 3-9 7-6 7-2 3v13l4 4v2l12 2-4 17-2 11-4 6-11 13-10 8-11 7-10 5-9 3-11-2-10-11 1-6 3-3 4-1 4 6 7 8 5 1-1-7-4-3v-3h13l4 1 4-5 5-3 6-11v-20l-9-19-1-4h-2l-3-5-4-5-8-4-8-8-10-5-12-4-10-1-9 4-4 6-3 14-3 1-17-2-9-2-7-6-3-5v-7l1-1 11-1 10-5 13-9 5-4h2l1-4h-5l2-4 8-8 6-7 2 4 6-10 6 1 8 6 8 10 9 11 11 14 9 11 9 10 3-15h-4v2l-10-1v-6l7 1 8 2 1-6v-8l-5-1v3h-8l-9-3 1-7 13 2 11 2v-2l-20-4-3-1v-5l3-1 12 3h10l-20-4-9-3 1-5 11 2 18 3 1-12 5-20-8-2h-8l-16 8 2-12 2-7 20 5 9 2v-3l-15-3-12-4 2-6z" fill="#00B554"/>
<path transform="translate(1395,258)" d="m0 0h8l12 3 31 12 2 1h7l25-7 9-3h5l-1 4-14 4h-4v2l-22 7-12 2h-16v6l-7 6h-11l-10-5-3-3-10 2-15 5h-4l4 13 10 27v3l-20 6-4-9-12-34h-4l1 7 11 33 1 6h-3l-4-10-6-19v-2l-5 2 2 9 7 21v2l-28 9h-2l-5-16v-3h-3l4 13 1 8-4 1v-8l-3-10-3-2 4 14 1 6-28 10-21 7-2 1-1 7-3 1-41 4-43 5-5-1-19-11-14-10-1-2 22 1h28l13-4 9-7 5-12 7-19 7-11 10-10 8-7 5-5 4-2 9 1 15 2h17l12-2 12-5 6-5 3-6 68-22z" fill="#A6E0FE"/>
<path transform="translate(1375,401)" d="m0 0 4 2 15 10 18 13 12 9v9l-2 16-1 3-2 16-1 3-8 1-2 23-1 18-1 7-1 18-1 7-3 43-8 102 3 1-9 2-5 5-6 10-6 18-2 10-1 10v33l-9 10-2 3h-2l-1 3-5 1v-20l3-63 2-54 2-27 4-131 1-27v-14l3-1 10 2v-26z" fill="#FE9B02"/>
<path transform="translate(281,207)" d="m0 0h5l2 4 1 10 1 3h-2v8h-1v-16h-2l1 35 6 41v22l-1 8-4 4 1 4 4-8 3-3 4-6 8-7 10-5h5l4 6 2 10v6h2l3-9 2-7-1-14-1-6-1-4-1-10-3-14-2-13-3-12 1-3 5 11 3 7 7 19 4 13-1 4-5 5 1 3 7 4 1 12 5 5-1 6-4 10v11l3 8 1 7v8l-4 3h-18l-5-3-1-2-4-1 2 15 3 6 7 6 6 3v2l-73 8-31 3-15 2-25 3-9 1 4-4 9-7h2l3-6-4-2-15-1-10-7-3-3v-10l9-6 29-12 7-2 13-3h14l11 1-1 4-3 4-1 4 7-6 9-15 4-9 1-5v-19l-5-35 1-13 6-21 10-29z" fill="#FBD751"/>
<path transform="translate(650,135)" d="m0 0 3 3 7 26 8 16 7 5 15 2 17 2 12 5 12 9 7 7 7 9v2l-8 5-6 8-6 15-10 27-10 19-9 12-14 14h-1v-22l-2-10-5-10-6-7-17-12-13-10-10-11-9-14 1-5 6-8 4-8 7-23 9-35 3-10z" fill="#F9FBFB"/>
<path transform="translate(874,490)" d="m0 0 18 4 1 1v25l-7 174-5 117-2 6-7 7-11 7-5 2h-3l4-150 5-183 1-9z" fill="#92C3FE"/>
<path transform="translate(1389,702)" d="m0 0h8l7 6 5 10 3 12 1 8v23l17 1 23 3 7 3 3 3-1 4-10 7-19 9-16 8-8 3-3 2 16 4 2 2-12 7h-2l-2 4-5 3-14 3v2l-9 4-14 7-7 2h-13l-21-3-115-11-47-4v-1h18l88 8 41 4h13l-13-2-55-5-13-2-22-1-6-1-52-2-26-3-5-3v-2l-3-1 5-4h16l34 4 63 6 56 6h20l13-5h3v-2h3v-2l6-4 7-9 5-5 7-8v-33l2-14 4-16 5-12 7-10z" fill="#657A88"/>
<path transform="translate(448,711)" d="m0 0h9l5 3 6 10 3 9 2 13v24h12l26 3 8 3 4 3v4l-9 6-21 11-10 4-15 8-3 1 14 3 4 2-4 4-10 6-5 4-10 3h-5v3h-8l-10-4-2-2-5 1-12 6-11 4h-19l-136-10-43-4-9-2-4-4 1-4 5-3 17 3 83 8 29 3 38 4h19l12-5 11-7 7-7 9-11 5-6v-35l4-22 5-13 5-9 5-6z" fill="#647B8A"/>
<path transform="translate(917,711)" d="m0 0h9l6 5 4 7v5h2l3 18v24h12l26 3 9 3v2h2v5l-7 6-16 8-16 7-18 9 14 3 5 2-5 4-11 7-7 4-11 3-1 2h-8l-12-5v-2l-10 4-14 7-4 1h-19l-104-9-76-6-10-2-2-3 1-4 4-2 41 4 130 13h17l11-5 10-6 16-16 6-9v-32l3-19 5-16 6-12 7-7z" fill="#657C8B"/>
<path transform="translate(357,278)" d="m0 0h9l12 2-1 9-3 1-7-5 3 5 4 2h6l-1-4 3-6 14 3 4 2v-2l9-1h21l17 5 19 10 15 11 2 1 2 5 5 5 5 8 1 3v12l-3 1h-7l-5-4-15-3-31-4-39-6-16-3-3 11-9 19-2 2 1 9 2 4 5 2 7 2 14 2 3 2-2 4-4 4-24 3-14 1-4 1h-15l-8-4-6-6-3-10v-10l5 1 2 3 3 1h18l3-2v-8l-2-11-2-4v-11l5-12-1-5-1-3-3-1-1-12-8-5 2-4 8-7z" fill="#FEDC53"/>
<path transform="translate(1144,260)" d="m0 0 13 3 8 4 10 9 7 10 4 9 3 16v10l-1 10 8-2-2 6-5 10-8 10-5 4-9 3-15 3-10-1-13-4-7-5-9-12-5-10-4-14v-15l4-17 8-13 8-7 8-4z" fill="#FAFCFC"/>
<path transform="translate(1109,238)" d="m0 0h28l10 4 8 9-5 5-6 5-12 3-9 5-7 6-7 12-4 17v15l5 17 6 10 8 10 10 5 14 3 9-1 17-4 6-4 8-10 12-23 8-12 12-14 4-6 6 1-1-6 7 6 9 5-1 2-5 3-9 9-8 7-6 7-7 14-7 20-4 6-10 7-11 3h-28l-21-1 11 8 15 9 8 5-2 2h-8l-4-4-12-7-20-13-3-2v-2l20-3 1-1-7-3-11-7-7-7-8-16-4-16v-11l-3 1-22 2h-13l2-10 5-12-17-2 1-11 3-7 4-5 14-10 16-7 15-4z" fill="#508897"/>
<path transform="translate(421,158)" d="m0 0 16 8h6l4-2 5 1 9 8 5 11 4 14v20l-4 14-6 10-9 8-10 5-5 1h-18l-4-3-11-3v-2l-5-1-6-4v-2l-4-2-7-8-3-5v-4h-2l-3-7v-11l9-13 6-8 6 1h3l7-13 11-9z" fill="#FEC95F"/>
<path transform="translate(624,236)" d="m0 0 3 4 7 21 10 20 13 20 9 14v3l-8 2-1 9-4 3-8 3-1 4 1 8-4 5-8 5 1 18-5 4-6 11-3 3-3-3-8-16-10-18-8-12-10-13-2-5 3-18 5-17 12-25 9-13 8-10z" fill="#01FB53"/>
<path transform="translate(201,265)" d="m0 0h12l7 3 7 7 6 10 1 5-2 2h-17l-16-8-13-7 1 2v18l8 1 10 4 10 9 5 9-1 2h-5l-4 4-9 7h-2l-2 4-10 9-7 9-6 1-1 3-3 3h-4v2h-2v12l3 1 1-9 4-2 3 1-5 3v10l7 6 5 3 15 1 5 3-4 6-14 10-15 2h-10l-16-4-10-4-8-7-3-8-1-12h5l6 5h17l4-3v-9l-3-12-2-2 1-8 2-5 1 4-1 3 1 2h2l5-9v-9l-6 5v-6l2-4-1-5-3-5-2-6-7-3-3-2 1-4 9-7 7-3 9-1 16 3-2-14-2-7v-6l7 1 2 4 10-6z" fill="#FDDB53"/>
<path transform="translate(886,89)" d="m0 0h7l9 6 7 6 6 8-1 2-15-15-7-4-5 1 7 3 11 9 11 11 10 15 8 16 1 4v7h-2l-1-8-5-12-10-14-11-9-8-7-4 1-3 2v5l13 9 16 10 1 2-6-2-19-11-7-6-4-7-1-12-2 3v10l5 9 10 7 14 6 10 7 6 7 2 6 2 12-8 11-11 7-15 8-19 12h-3l1-9 2-6v-21l-1-1h-6l-3 1v-3l8-2 9-7 1-2h-26l-26 2-13 3-9 7-6 7-2 3-1 12-4-4v-3l-4-2-4-4 1-5h2l2-4 11-10 21-21 5-4 14-14 8-7 13-11 5-6 7 2 5-5z" fill="#F3B975"/>
<path transform="translate(1276,64)" d="m0 0h2v16l-2 26-7 21h2v2l4 2 1 1v5l-2-1-3-5-3 1-3 8v6l3 2-5 3h-2v12l-1 16-1 2 10 1 28 1-1 16-1 1h-22l-19-3-5-2 1 5 17 4 18 1h11l-2 33-1 1h-5v-7l-9-3-5-13v-2l18-1 1-5h-23l-9-1v4l4 1 1 2h-3l1 7-6 1-4-1-2 7 1 5 5 5 2 6 2 1v2h5v2h-3l1 2h5l1-4h16v-4l6-1v15l-1 3h-21l-16-3 1 23 5 3 3 3 17 1 9-1 2 6 2 2-6 1h-29l-12-3-11-6-5-5v-2h-2l1-5 1-1 3-46 4-66 2-18 6-12 11-12 8-7 6-9 2-11 2-27z" fill="#93A8A2"/>
<path transform="translate(1093,485)" d="m0 0h2l7 47 4 30 6 38 13 97 5 28 8 58 3 15-1 9 4 2h-9l-3-3-8-6-4-10-9-61-23-159-9-62-2-21z" fill="#FDDD55"/>
<path transform="translate(1345,375)" d="m0 0h7l21 6 4 3-2 14-5-1-14-5-4-1h-8l-9 2-25 3-125 14-36 4-50 6-38 4 2 12 5 21 5 26v4l4 1h-11l-2-5-14-62v-7l4-5 6-2 67-8 17-2 16-1 49-6 69-7 61-7z" fill="#FDE683"/>
<path transform="translate(613,509)" d="m0 0h12l4 26 12 86 17 117 10 69v10h-5l-8-6-5-7-3-12-5-37-3-17-4-30-4-29-3-20-7-49-9-62-4-25-1-13z" fill="#71B2FE"/>
<path transform="translate(281,207)" d="m0 0h5l2 4 1 10 1 3h-2v8h-1v-16h-2l1 35 6 41v22l-1 8-3 2-6 1v2h3l-1 4-7 3h-2l-2 5-4 7-7 8-10 9-3 3h-2l-1 3-5 3-5 9h-3l2-6-4 2-8 8-8 7-4 2-2 4-3 5v4l-21 3-2-1 12-9 3-1 3-6-4-2-15-1-10-7-3-3v-10l9-6 29-12 7-2 13-3h14l11 1-1 4-3 4-1 4 7-6 9-15 4-9 1-5v-19l-5-35 1-13 6-21 10-29z" fill="#FDE581"/>
<path transform="translate(1339,299)" d="m0 0 5 1 14 40 2 2 19-6 17-5 19-8 10-6 18-13 3-2h5l3 4-2 6-10 16-7 11-9 8-16 8-56 18-9 3-41 5-45 5h-6v-7l8-4 36-12 7-3-3-13-1-6 4 2 3 10v7h3l-4-13-1-8h3l5 16v3l27-9h3l-10-29 1-4 5-1 10 29v2h3l-10-29-4-13z" fill="#7892A0"/>
<path transform="translate(617,229)" d="m0 0h2l4 6-2 4-7 7-10 14-8 14-8 17-5 17-3 20 15 20 14 24 8 15 6 17h2l13-11 10-9 7-7 9-11 7-8 11-15-1-6-4-5v-3l11-2 13 18 7 10 10 16 2 5-8 8-14 11-14 10-7 2-11 1h-9v-5l-5 2-8 5-9 1 5-4 16-12 14-12 7-8v-4l-4 2-15 15-14 11-16 12-3 1h-8l-7-21-8-16-10-17-19-28v-11l5-23 5-15 8-16 10-16 11-14z" fill="#F6F9FA"/>
<path transform="translate(434,392)" d="m0 0 4 1 14 13 8 7 14 12 8 7 3 4v10l-6 45h-9v10l-1 6-17-4-23-6-11-4 2-15 11 2v-15l1-19 1-36 3-1z" fill="#079456"/>
<path transform="translate(1358,285)" d="m0 0h3l10 28 8 21v3l-20 6-4-9-12-34h-4l1 7 11 33 1 6h-3l-4-10-6-19v-2l-5 2 2 9 7 21v2l-28 9h-2l-5-16v-3h-3l4 13 1 8-4 1v-8l-3-10-3-2 4 14 1 6-11 4h-3l-10-32-7-23v-3l26-3 26-6 15-5z" fill="#FBFCFC"/>
<path transform="translate(448,711)" d="m0 0h9l5 3 6 10 3 9 1 6v38l-4 20-6 17-9 11-4 2h-7l-6-1-3-1 2-1-1-4-5-12-3-16v-29l4-22 5-13 5-9 5-6z" fill="#273538"/>
<path transform="translate(1389,702)" d="m0 0h8l7 6 5 10 3 12v37l-3 17-5 16-4 8-8 9-2 1h-9l-5-3-6-12-4-18v-28l2-14 4-16 5-12 7-10z" fill="#273539"/>
<path transform="translate(917,711)" d="m0 0h9l6 5 4 7v5h2l1 4 1 17v28l-4 20-5 14-6 10-6 5-2 1-16-1 1-2h2l-6-13-3-12-1-7v-26l3-19 5-16 6-12 7-7z" fill="#273538"/>
<path transform="translate(205,152)" d="m0 0h9l1 12h2v-11l7-1 8 6 1 5-3 7v38l-11 6h-2l3 5 1 4-7 6-6 1v2l-11 7-2 2-4-1-8-10-11-19-5-14v-18l4-10 7-7 11-6z" fill="#FECA60"/>
<path transform="translate(852,476)" d="m0 0h24l12 2v15l-14-2-67 5-176 12-24 1-2-11 1-2 17-2 3-1 147-11z" fill="#3A70B5"/>
<path transform="translate(784,61)" d="m0 0 17 4 7 1 1-5 22 1v5l9-2 3 6-1 10-8 41v9l-15 14-13 13-11 10-1 2h-2l-1 3h-1v-10l2-8h-4v2l-10-1v-6l7 1 8 2 1-6v-8l-5-1v3h-8l-9-3 1-7 13 2 11 2v-2l-20-4-3-1v-5l3-1 12 3h10l-20-4-9-3 1-5 11 2 18 3 1-12 5-20-8-2h-8l-16 8 2-12 2-7 20 5 9 2v-3l-15-3-12-4 2-6z" fill="#38B7AE"/>
<path transform="translate(405,384)" d="m0 0 5 1-1 13-2-1h-7l-10 2-59 7-12 2-53 5-3 1-60 6-53 6-17 3-15 1 1 11 5 19 5 21-1 10h2v4l3 1h-6l-3-9-13-55v-10l7-6 37-4 24-3 13-1 25-3 44-5 39-4 27-3h9v-2l14-1 4-1 35-3 10-1z" fill="#59FB9C"/>
<path transform="translate(383,476)" d="m0 0h13l-1 16-72 5-158 11-15 1h-11l-3-12-1-2 89-7 94-7z" fill="#069555"/>
<path transform="translate(409,284)" d="m0 0h21l17 5 19 10 15 11 2 1 2 5 5 5 5 8 1 3v12l-3 1h-7l-5-4-15-3-31-4-39-6-12-2-3-2v-3h2v-2h3l-1-5 1-4 2-1v3h7l9-4v-2l12 1-5-10-8-7-3-2v-3z" fill="#FDD314"/>
<path transform="translate(1325,467)" d="m0 0h10v11l-1 5-4 1-53 4-108 7-57 4h-16l-1-14 73-6 115-9z" fill="#FF9B01"/>
<path transform="translate(473,758)" d="m0 0 21 2 49 6 12 4 3 3-1 5-6 5-29 16-25 13-11 6 5 6 1 3-5 6-11 5-11 2h-22l-15 8-6 2h-20l-157-15-50-4-7-2-2-3 1-4 3-2 3 5 4 2 26 3 63 5 73 5 23 2h19l13-5 12-6 4 1 8 4 11 2v-3l15-4 8-6 10-6-3-2-15-3 1-2 24-12 10-4 20-11 4-2v-4l-4-2-8-3-26-3-12-1z" fill="#BAC7CF"/>
<path transform="translate(768,45)" d="m0 0 4 1 7 6 16 5 13 3 1 1v5l-3 1-20-5-2-1-2 5-2 4 12 3 18 4-3 1v2l-14-2-14-4-4 15v2l12-7 3-1h8l8 3-2 13-3 13-1 6h-8l-18-4h-3l-1 4 19 4 10 2 1 2h-11l-14-3-1 5 11 2 12 3v2l-11-1-13-3 1 4h-2l1 3 16 3v-3h5l1 1v8l-2 6-15-3v6l10 1v-2h4l-2 17-5-5-13-15-9-12-10-12-6-8h2v-7l11-53 4-8 3-5z" fill="#A6E0FD"/>
<path transform="translate(1376,384)" d="m0 0 5 2 17 16 11 9 12 11 4 5v11l-5-5-19-14-17-12-9-6v18l-2 53-12-1v16l-3 85-2 73-2 25-2 54-2 39h-1v-29l4-111 5-116v-22l-10-2-11-1v-15h10v-53l1-23-4-1h8l16 5 7 3v-10z" fill="#FEE683"/>
<path transform="translate(874,384)" d="m0 0h7l16 3v2l6 1 2 1v2l4 2 7 7 8 7 11 10 10 8 8 8v9l-9-5-13-10-20-14-2-1-1 29-2 38-2 1-20-4-8-1-1-1v-19l2-72z" fill="#92C3FE"/>
<path transform="translate(929,284)" d="m0 0 4 1 4 5 3 6 1 8-2 8-4 4-2 1-1 6-7 5v3l-2 3-6 2h-4l2-4 5-5-10-4-13-4-13-5h-3v3l12 6 10 4-2 4-8-1-6-3-8-2-6-2 5 5 16 8-3 3-7 5-8-1-10-6-4-4h-3l1 4 5 6 11 6v3l-11 18-8 13-1 3-24 3-16 1 6-18 9-14 5-6 2 1-2 4 11-11 7-6 3-8 1-11 3-6h2l1 2 3 1-2-9 3-3 2 1v2l4 1-1-6 7-1 8 5 15 7 14 3v2l8 1 2-5-9-2-9-3-7-3v-2l-10-2-9-2-2-2v-4l3-1h8l2 2 16 5 14 6 8 6 1-7 1-2v-11z" fill="#FCFDFD"/>
<path transform="translate(1225,316)" d="m0 0h5v13l2 20 7 23 6 12v2h5v1l-41 4-43 5-5-1-19-11-14-10-1-2 22 1h28l13-4 9-7 5-12 7-19 7-11 4-2z" fill="#B1CCD7"/>
<path transform="translate(941,758)" d="m0 0 56 6 18 3 9 4 2 3-1 4-7 6-26 14-20 10-16 9-2 2 5 4 1 5-8 7-12 4-7 1h-21l-16 8-12 3-15-1-28-3-1-1-182-16-3-3 1-3 3 3 3 1 171 15 17 1h15l13-5 15-8h4v2l12 4h7l2-2 14-4 10-7 8-5-3-2-16-3 4-3 24-12 10-4 17-9 3-3 1-5h-2v-2l-16-3-31-3z" fill="#BAC7CE"/>
<path transform="translate(908,251)" d="m0 0h11l13 4 6 5 1 5-1 7v6l-3 3h-2l6 8 4 10v9l-5 10-8 9h-2l-1 4-3 3v-3-3l5-4 3-3 1-5 4-2 2-4 1-7-2-10-6-8-1 1 4 8v11l-3 9-5-2-5-4-20-8-9-3-1-1h-11l2 5 16 4 3 1v2l10 3 15 5-1 5-4 1-5-2v-2h-6l-13-4-10-5-8-5h-7l1 6-4-1-2-2h-2l1 11-4-1v-2l-3 3-1 3-2 15-4 6-15 14-4 3 2-4v-1l-7 8-6 10-6 17 3 2h-7l2-1 1-7 5-13 10-16 3-3v-3l6-3 11-10 3-3 3-17h-7l-2-4v-10l2 2 14-3h5l2-4 6-9 8-7 12-6 7-1-1-6 2-5 2-10z" fill="#CAE3ED"/>
<path transform="translate(278,203)" d="m0 0 1 4-1 9-11 34-3 14 1 15 4 27v19l-3 10-9 16-8 9h-2l1-5 4-7h-25l-13 3-7 2-31 13-8 2-1 9-4-1v-8l1-4h2v-2h4l1-3 5-4 4-1 6-8 8-8 8-7 11-8-1-2h7l3-2 16-4 8-1 4-4h4l2-4 4-2v-9l-3-13v-26l4-13 11-24 4-10z" fill="#FED416"/>
<path transform="translate(1131,198)" d="m0 0 7 6-1 4-24 10 1 7 9-1 23-7h2v-2l5-1v2h-2l7 11 8 13 17 33 10 16 14 15 3 3-2 4-8 13-3 5-7 3-3-1 1-10v-10l-3-16-7-14-10-11-9-5-13-4v-3l8-6-4-6-3-3-10-4h-28l-22 6-6 2-1-2-1-12-4-4v-2l13-5 19-10 14-8z" fill="#45DCD5"/>
<path transform="translate(360,85)" d="m0 0h7v12l-9 12 1 5 5 5v2l4 2 3 3v4l-7 7-23 1 1 3 5 5v2h2v4l-7 6v2l9-9-2-5-4-5v-2l18-1 5-3 3-1 10 5-1 3-10 6 4 5v3l-9 7-10 5-8 6-5-2-7-10-8-13-5-10-3-13v-13l4-10 6-7 10-6 10-3 1-1z" fill="#FECB60"/>
<path transform="translate(722,152)" d="m0 0 10 1 17 6 8 6 6 6 8 4 6 7v3h2l8 16 3 7v20l-7 12-8 5-12-19-2-3 1-4 4-2v-6l3-3-2-1v2l-9 7-4-2-4-6 4-4-3-1v2l-4 1 1-3h2v-2l7-5 1-3-3 1-5 5-4 3-4-1 4-5 7-5-1-3-5 1-3 1v2l-6 4h-2l1-4 12-9 4-4-1-3-7 4-13 10-5-1-16-8-5-2 1-13 4-8 5-4z" fill="#91A6A2"/>
<path transform="translate(1138,149)" d="m0 0 4 2 4 4v2l9 1 9 11 14 19 16 21v2h2l6-17 1-1 13-1 4-1h9l-1 25-4 59-5-5-12-17-17-26-18-27-12-17-9-3-3-14 1 11-4-2-2-2-2 3-1-17z" fill="#45DDD5"/>
<path transform="translate(268,226)" d="m0 0 1 2-8 17-3 11v26l3 13v7l-5 5-2 3-6 2-2 3-8 1-16 4h-3l-5-9-9-8-10-4-8-2-1-20 5 2 21 11 3 1h17l1-3-5-10-6-8 7-12 7-9 4 1 4 2 7-14 12-9z" fill="#FDDEAC"/>
<path transform="translate(1377,159)" d="m0 0 6 1 3 4 5 25 4 31v17l-4-1-2-16-3-20-3-12v-4h-2l-2 5-4 5-6 11-9 17-4 10-4 8-3 7-7 18-12 5-9 2v-13l2-37 1-4 1 2 14-9 10-8 8-9 6-12 2-9 6-10z" fill="#BBC7CF"/>
<path transform="translate(1294,111)" d="m0 0 4 1 8 9 9 13 4 8 2 8-1 27-6 102-3 6-5 4-5 1-1-1-7-1-1 2-1-8 1-22 13-3 3-45 2-32-13 2v-39l-4-17-2-7v-5z" fill="#46616F"/>
<path transform="translate(1245,178)" d="m0 0 9 1 15 3 28 1-1 16-1 1h-22l-19-3-5-2 1 5 17 4 18 1h11l-2 33-1 1h-5v-7l-9-3-5-13v-2l18-1 1-5h-23l-9-1v4l4 1 1 2h-3l1 7-6 1-4-1-2 7 1 5 5 5 2 6 2 1v2h5v2h-3l1 2h5l1-4h16v-4l6-1v15l-1 3h-21l-18-3-11-4-1-1v-12z" fill="#F8FBFB"/>
<path transform="translate(227,347)" d="m0 0h14l11 1-1 4-9 13h-2l-2 4-7 8-8 8-8 7-4 2-2 4-3 5v4l-21 3-2-1 12-9 3-1 3-6-4-2-15-1-10-7-3-3v-10l9-6 29-12 7-2z" fill="#FCFCFA"/>
<path transform="translate(1413,749)" d="m0 0 38 4 30 4 13 4 4 4-1 5-9 6-22 12-25 13-15 8-1 2 4 2 2 2-1 7-10 6-13 3h-17l-4-2h3v-2l16-5 7-6 11-6-8-3-11-2 5-4 16-7 8-4 21-10 8-6-1-4-5-3-17-3-26-3z" fill="#BAC7CF"/>
<path transform="translate(729,107)" d="m0 0 6 1 8 6 8 10 9 11 11 14 9 11 9 10 6 8 4 3 4 7 5 5v2l12 2-4 17-2 11-4 6-11 13-10 8-11 7-10 5-9 3-11-2-10-11 1-6 3-3 4-1 4 6 7 8 5 1-1-7-4-3v-3h13l4 1 4-5 5-3 5-9 4 1 4 5 5-2 7-8 2-8-1-5-13-16-12-16-11-13-11-14-13-16-11-13-6-5-6-2-1-4z" fill="#03FC54"/>
<path transform="translate(421,158)" d="m0 0 16 8h6l4-2 5 1 9 8-1 8-2 1-29 1v23l-14 2-3 2-7-1-6-3v-2h-4l-2 7h-2l-3 9-9-3h-5l-1-2v-11l9-13 6-8 6 1h3l7-13 11-9z" fill="#FDDEAE"/>
<path transform="translate(1306,180)" d="m0 0h4l-1 32-3 45-4 2-10 1 1-18-6 1v4h-16l-1 5h-5l-1-3h3v-2h-5v-2l-3-1-3-7-5-5 1-10 4-2 3 1h5l-1-7 2-1-4-2v-4l32 1v5l-1 1h-18l4 9 1 6 8 1 2 2-1 7 5-1 2-31 1-2-18 1-17-2-11-3-1-1v-5l24 4h22l2-16h-5v-1z" fill="#76919F"/>
<path transform="translate(201,265)" d="m0 0h12l7 3 7 7 6 10 1 5-2 2h-17l-16-8-13-7 1 2v18l8 1 10 4 10 9 5 9-1 2-10-1-10-3h-13l-13-5-13 1-3-2-14-2-4-3 1-4 9-7 7-3 9-1 16 3-2-14-2-7v-6l7 1 2 4 10-6z" fill="#FD0B6F"/>
<path transform="translate(1109,238)" d="m0 0h28l10 4 8 9-5 5-6 5-8 2-4-1 8-7 6-7h-15l-1 5h-2v3l-3 3-3 5-31 4-6 1v2l-11 5-6 8h-19l1-11 3-7 4-5 14-10 16-7 15-4z" fill="#4E8596"/>
<path transform="translate(1133,147)" d="m0 0 3 1 3 10v15l-2 10-5 10-8 7-26 15-17 9-7 1 2-8 9-19 7-11 10-13 11-12 8-8 9-6z" fill="#B2CDD8"/>
<path transform="translate(419,493)" d="m0 0 7 3-9 217-3 67-1 32-2 5-2 2-7 3-6 3h-2l2-4 7-6 2-3 2-37 1-39 2-36 3-66 1-38 3-66 1-36z" fill="#00FC52"/>
<path transform="translate(1446,302)" d="m0 0h5l3 4-2 6-10 16-7 11-9 8-16 8-56 18-9 3h-11l2-2 14-4 4-4 9-4 20-11-4-13v-2l17-5 19-8 10-6 18-13z" fill="#4D8797"/>
<path transform="translate(345,310)" d="m0 0h3l3 4-1 6-4 10v11l3 8 1 7v8l-4 3h-18l-5-3-1-2-4-1 2 15 3 6 7 6 6 3v2l-64 7h-5l1-4 14-12 25-20 14-12 9-8 7-10 5-13z" fill="#FBFCFC"/>
<path transform="translate(806,88)" d="m0 0 4 2 7 8 2 5h3l1 7-4 17-3 18 2 1-12 12-11 10-1 2h-2l-1 3h-1v-10l2-8h-4v2l-10-1v-6l7 1 8 2 1-6v-8l-5-1v3h-8l-9-3 1-7 13 2 11 2v-2l-20-4-3-1v-5l3-1 12 3h10l-20-4-9-3 1-5 11 2 18 3 1-12 4-17z" fill="#B6C3CB"/>
<path transform="translate(730,554)" d="m0 0h34l7 8 9 17 5-1 3-1-2 12-6 22-9-2-21-6-2-1v-2l6-2-7-14-12-22-5-6z" fill="#FAFCFD"/>
<path transform="translate(761,651)" d="m0 0h2l1 7 25 2 23 1-2 4-10 18-5 7-2 1h-16l-13-1v8l-3-1-7-8-13-14 1-4 11-11 7-8z" fill="#FAFCFD"/>
<path transform="translate(409,398)" d="m0 0 11 2 10 4 6 4-2 2-1 36-2 34-8-1-14-2-1-1 1-56z" fill="#57FC9C"/>
<path transform="translate(221,152)" d="m0 0 5 1 6 5 1 5-3 7v38l-11 6h-2l3 5 1 4-7 6-6 1v2l-11 7-2 2-4-1-3-4-1-6v-3l8-8-1-5-6-8v-2l21-1 5-3 3-4-1-4-5-6v-2h-3l-3-5 1-5 7-9 2-3v2h2v-11z" fill="#FDE9BC"/>
<path transform="translate(888,494)" d="m0 0 5 1v25l-7 174-5 117-2 6-4 3 2-52 7-185 3-76z" fill="#579FFE"/>
<path transform="translate(1131,248)" d="m0 0h15l-2 4-10 10-10 4-5 1-4 4h-2l-2 4h-2l-2 5-6 12-2 6-1 18h-1v-11l-3 1-22 2h-13l2-10 5-12-6-1v-1l8-1 6-8 8-4h3v-2l12-3 25-3 4-7h2v-3h2z" fill="#7994A0"/>
<path transform="translate(459,725)" d="m0 0 4 1 4 6 2 9v35l-4 21-5 12-4 4-5-1-3-5-3-15v-21l2-17 4-17 5-9z" fill="#8EA3A0"/>
<path transform="translate(928,725)" d="m0 0 4 2 4 9 1 7v33l-5 25-4 8-4 4-5-1-4-8-2-11v-24l3-21 4-13 6-9z" fill="#8EA3A0"/>
<path transform="translate(1412,738)" d="m0 0h1v23l17 1 23 3 7 3 3 3-1 4-10 7-19 9-16 8-8 3-3 2 16 4 2 2-12 7h-2l-1 3-1-2 1-2-10-3-1-4 4-7 5-14 3-13 1-8z" fill="#667C8A"/>
<path transform="translate(939,738)" d="m0 0h1l1 8v24h12l26 3 9 3v2h2v5l-7 6-16 8-16 7-18 9 14 3 5 2-5 4-9 5-1-3-5-1-6-2 1-4 6-13 5-21 1-6z" fill="#667B89"/>
<path transform="translate(472,746)" d="m0 0h1v24h12l26 3 8 3 4 3v4l-9 6-21 11-10 4-15 8-3 1 14 3 4 2-4 4-7 4h-3v-2l-5-1-6-2 1-4 4-9 5-15 3-16z" fill="#667C8A"/>
<path transform="translate(323,231)" d="m0 0 2 2 5 13 5 10 8 25-1 4-5 5 1 3 7 4 1 13-5 17-6 12-10 11-11 9-10 9-13 10-11 9-12 10-1 3-6 1h-9l5-4 14-14 7-6 3-4 6-3 13-10 10-9 12-13 4-6 6-11 2-10 1-10-2-14-1-4-1-10-3-14-2-13-3-12z" fill="#FDE587"/>
<path transform="translate(1398,717)" d="m0 0 5 1 4 5 2 10v34l-4 21-5 12-4 4-5-1-4-7-1-5v-39l3-17 4-10z" fill="#8FA5A1"/>
<path transform="translate(788,306)" d="m0 0h7l7 9 2 9v4h2l1 6v11l-2 10-4 4-14 3h-11l2-6v-15l-1-13-4-11v-2h-2l-3-4v-2l10-2z" fill="#5BA2FE"/>
<path transform="translate(787,97)" d="m0 0h7l9 3-3 18h-8l-18-4h-3l-1 4 19 4 10 2 1 2h-11l-14-3-1 5 11 2 12 3v2l-11-1-13-3 1 4h-2l1 3 16 3v-3h5l1 1v8l-2 6-15-3v6l10 1v-2h4l-2 17-5-5-13-15-9-12-5-6-1-5 2-1 5-13 5-8 7-6z" fill="#F9FBFB"/>
<path transform="translate(1388,250)" d="m0 0h17l16 5 19 10 7 2h7l11-3 20-6 8-3h5l-1 12-3-2-8 1-26 8-5 1h-7l-35-14-10-2-16 1-43 14-18 6-6 1v-9l57-19 7-2z" fill="#8CD7FE"/>
<path transform="translate(881,313)" d="m0 0 6 1 18 7 14 4 2 3-7 6-1 2 10-2-1 2h-2l-2 5-9 6-13 7-6 7-1 2h-2l2-6 8-7 17-9 2-2h-7l-19 12-8 9-1 2 5 1v1l-7 1-4 9-2 10-1 1-16 1 1-4 9-16 10-15-1-2-10-5-7-8 1-4 4 1 7 6 9 4h5l9-6-2-2-16-8-2-4 6 1 10 3 7 3h5v-3l-17-7-4-3z" fill="#C8E1EA"/>
<path transform="translate(701,316)" d="m0 0 4 4 10 15 12 17 12 19 6 10-1 4-14 10-12 7-4 1-20 1 5-5 14-10 11-9 2-2-1-5-10-16-16-23-6-9 6-7z" fill="#CAE3ED"/>
<path transform="translate(1133,809)" d="m0 0h16l34 4 63 6 56 6 16 2v1h-17v2l15 1v1h-16l-45-4-13-2-22-1-6-1-52-2-26-3-5-3v-2l-3-1z" fill="#4F768A"/>
<path transform="translate(795,612)" d="m0 0 4 1 12 21 6 11v8l-5 6h-23l-6-9-11-21 1-4z" fill="#F9FCFD"/>
<path transform="translate(679,655)" d="m0 0 53 2v31l-16-1-18-1-5-3-3-5-11-21z" fill="#FAFCFD"/>
<path transform="translate(705,606)" d="m0 0h4l7 26v6l-7-2-9 17-3 1-17-1-4-2-2-4v-7l10-19v-3l-5-3 1-2 18-5z" fill="#F9FCFD"/>
<path transform="translate(847,238)" d="m0 0h9l7 3 4 4-1 13-2 11-8-6-6-2h-15l-20 4-13 5-2-1 4-18 3-3 11-4 21-5z" fill="#FCFCFA"/>
<path transform="translate(383,262)" d="m0 0 11 6 15 8 6 1h15v-4h13l11 2 10 6 8 8 9 14 3 6 2 8-3-2v-4l-5-2-14-10-17-9-17-5h-30v2l-16-4-2-2z" fill="#FCE589"/>
<path transform="translate(929,284)" d="m0 0 4 1 4 5 3 6 1 8-2 8-4 4-2 1-1 6-7 5v3l-2 3-6 2h-4l2-4 5-5-10-4-13-4-13-5h-3v3l12 6 10 4-2 4-8-1-6-3-8-2-7-1-7-5 2-1-2-9 3-3 2 1v2l4 1-1-6 7-1 8 5 15 7 14 3v2l8 1 2-5-9-2-9-3-7-3v-2l-10-2-9-2-2-2v-4l3-1h8l2 2 16 5 14 6 8 6 1-7 1-2v-11z" fill="#CAE3EC"/>
<path transform="translate(708,137)" d="m0 0 5 1 5 2h3v2h-2l4 6 2 4-10 4-5 5-2 5-2 11-3 1-17-2-9-2-7-6-3-5v-7l1-1 11-1 10-5 13-9z" fill="#01FC52"/>
<path transform="translate(357,278)" d="m0 0h9l12 2-1 9-3 1-7-5 3 5 4 2h6l-1-4 3-6 14 3 11 7 6 7 3 5v3l-14-1-4-2h-14l-13-5-14 1-6-3-9-1-6-4 2-4 8-7z" fill="#FD096F"/>
<path transform="translate(1131,198)" d="m0 0 7 6-1 4-24 10 1 7 9-1 23-7h2v-2l5-1v2h-2l-1 4-15 5-16 5v2l3 3 7 1v1l-25 3-5 2-12 3-6 2-1-2-1-12-4-4v-2l13-5 19-10 14-8z" fill="#B2CDD8"/>
<path transform="translate(925,149)" d="m0 0 2 3 4 10-1 6-8 10-14 8-16 9-14 9h-3l1-9 2-6v-21l-1-1h-6l-3 1v-3l8-2 9-7 2-2 5 3 1 3v8l-7 8-4 2-1 6 15-10 18-11 8-5z" fill="#FD9622"/>
<path transform="translate(189,820)" d="m0 0 4 5 4 2 26 3 63 5 73 5 23 2h19l13-5 12-6 4 1 8 4 10 2v1l-6 2-17 8-3 1h-20l-157-15-50-4-7-2-2-3 1-4z" fill="#BDCAD2"/>
<path transform="translate(1361,485)" d="m0 0 4 2v15l-2 42-4 103-5 110-2 46h2l-1 3-5 1v-20l3-63 2-54 2-27 4-131 1-25z" fill="#FDD311"/>
<path transform="translate(1220,191)" d="m0 0h9l-1 25-2 31-2 4-6-8-11-15-9-12-2-4 6-18 1-1 13-1z" fill="#8CD8FE"/>
<path transform="translate(721,554)" d="m0 0 7 1 3 3 8 13 1 7-10 19-3 5-1 4-4-1-18-11-4-3 2-5 13-26z" fill="#FAFCFD"/>
<path transform="translate(1307,313)" d="m0 0h12l3 9 1 2 4-1 2-2 4 1 2 1 8 24v2l-28 9h-2l-5-16v-3h-3l4 13 1 8-4 1v-8l-3-10-4-1h-7l-2-3 1-4 4-2 3 4h7l2-1-1-8-3-3 2-3 3 1v2l5-1 1-3-6-2-2-1v2l-4 2v-6z" fill="#CAE3EC"/>
<path transform="translate(1140,284)" d="m0 0 7 1 6 4 8 8 5 11v18l-3 7-5 6h-2l-1 10-3 3-7-9-2-5 3-1-1-13-5-4-2-5v-6l3-5-1-11z" fill="#4D8494"/>
<path transform="translate(1513,246)" d="m0 0 7 2 7 10 3 11v11l-1 4-9 4-6 2h-7l-5-7-5-12-1-10 1-7 8-5z" fill="#8DD8FE"/>
<path transform="translate(201,265)" d="m0 0h12l7 3 7 7 6 10 1 5-2 2h-17l-16-8-13-7 1 2v16l-5 10h10v2h-15l-6-4 1-3 4 3 4 1 1-9-2-14-2-7v-6l7 1 2 4 10-6z" fill="#05B456"/>
<path transform="translate(904,392)" d="m0 0 5 3 7 7 8 7 11 10 10 8 8 8v9l-9-5-13-10-20-14-2-1-1 29-2 38-2 1-5-1 2-34z" fill="#91C3FE"/>
<path transform="translate(401,250)" d="m0 0h7l9 4 7 7 4 6 2 5v5l-6 1h-9l-8-2-20-11-3-2-1 18-4 10h6v1l-11 1-6-4-1-4 4 2 5 2 1-4v-20h-2l-1-10 7 1v3l7-4 8-4z" fill="#05B556"/>
<path transform="translate(1109,238)" d="m0 0h28l10 4 4 4-1 3-6-2h-9l-21 3-22 6-20 8-13 7-8 7h-1l1-9 6-8 14-10 16-7 15-4z" fill="#172832"/>
<path transform="translate(886,89)" d="m0 0h7l9 6 7 6 6 8-1 2-15-15-7-4-5 1 7 3 11 9 11 11 10 15 8 16 1 4v7h-2l-1-8-5-12-10-14-11-9-8-7-4 1-3 2v5l13 9 16 10 1 2-6-2-19-11-7-6-4-7-1-12-2 3v10l5 9 10 7 14 6 10 7 6 7 2 6-2 2-3-9-13-8-22-7-6-3v-2l-3-1-4-8v-15l1-3-8-2 4-5 7 2 5-5z" fill="#ADC8D2"/>
<path transform="translate(845,163)" d="m0 0 4 1 1 7-8 16-7 23-1 11 1 9h18l8 2v2h-15l-1 3 2 2-18 3-7 2-4-1 1-5 3-1v-17l3-15 6-18 7-16 4-6z" fill="#C6E0EA"/>
<path transform="translate(1255,257)" d="m0 0 16 2 21 1v22l-1 6-2-1-16 1-9-1-7-6h-2z" fill="#7C856F"/>
<path transform="translate(186,277)" d="m0 0 5 2 21 11 15 3 9 12 4 4 3 1-1 3-18 6-5 1-5-9-9-8-10-4-8-2z" fill="#FBFCFB"/>
<path transform="translate(375,85)" d="m0 0 7 4 3 3-1 7-1 2-1 9v31l-5-3-6-3-8 4h-18l4 6 3 4-2 4-10 10 1-5 6-6h2v-4h-2l-3-4v-2l-3-1-1-4 24-1 5-6h2v-4l-3-1-7-8-4-5 1-4 3-3 5-4 3-5 1-10z" fill="#FDE9BB"/>
<path transform="translate(628,243)" d="m0 0 7 6 13 12 13 25 12 19 4 6-2 16-5-5-7-10-14-22-8-13-10-21-3-10z" fill="#F6FAFC"/>
<path transform="translate(1261,207)" d="m0 0 32 1v5l-1 1h-18l4 9 1 6 8 1 2 2-1 7-7 1-11-1 1 7 2 1h-2l-1 5h-5l-1-3h3v-2h-5v-2l-3-1-3-7-5-5 1-10 4-2 3 1h5l-1-7 2-1-4-2z" fill="#D0E4EA"/>
<path transform="translate(256,261)" d="m0 0h1l1 18 2 14 1 2v7l-5 5-2 3-6 2-2 3-8 1-11 3-3-1 18-6 1-2-4-1-9-10-3-4v-2h-7v-1l12-1 1-5 3-3 4-7 3-5h3v2l5 1 2 1v2l4 1-1-5z" fill="#FCCB62"/>
<path transform="translate(728,125)" d="m0 0 6 2 9 10 13 17 13 16 14 17 8 10 14 18 4 6v5l-9 10-4 1-5-6-2-1v-22l-9-19-1-4h-2l-3-5-4-5-8-4-8-8-5-4v-4l1-3-4-2-7-5-9-11-2-2z" fill="#069355"/>
<path transform="translate(776,38)" d="m0 0h21l16 3 20 8 7 6v3l-4 1h-23l-25-6-16-8-1-4z" fill="#DDE8EC"/>
<path transform="translate(754,178)" d="m0 0 5 5-1 2h-3v2h10l4 4 3 6v3h2l5 13 1 9-6 8-4 3-4-2-5-8 1-4 4-2v-6l3-3-2-1v2l-9 7-4-2-4-6 4-4-3-1v2l-4 1 1-3h2v-2l7-5 1-3-3 1-5 5-4 3-4-1 4-5 7-5-1-3-5 1-3 1v2l-6 4h-2l1-4 12-9z" fill="#BBC8D0"/>
<path transform="translate(121,379)" d="m0 0 4 2 6 6 1 6 16 1 3 2 5 1h7l14-3 5 1 7 4 8-1-4 5-9 6-15 2h-10l-16-4-10-4-8-7-3-8z" fill="#FD0C6E"/>
<path transform="translate(271,343)" d="m0 0h2l1 6-7 8-5 5h-5l-1 4h-2l-2 6-4 5-2 5-11 13-3 4h-2l-2 4-6 2-5 1h-12l1-5 5-7 8-7 12-11 2-2 3 1-3 6 3-1 4-8 6-4 13-13 8-7z" fill="#FED11B"/>
<path transform="translate(920,284)" d="m0 0h9l5 7 1 3v11l-3 9-5-2-5-4-20-8-9-3-1-1h-11l2 5 16 4 3 1v2l10 3 15 5-1 5-4 1-5-2v-2h-6l-13-4-10-5-8-5h-7l-1 2-1-7 5-1v2l4 1-4-8 1-2 27 4 16 6 1-3v-9z" fill="#CBE4ED"/>
<path transform="translate(1103,282)" d="m0 0 1 3-5 13-1 18h-1v-11l-3 1-22 2h-13l2-10 5-12 4-1 31-2z" fill="#BAC7CF"/>
<path transform="translate(655,824)" d="m0 0 4 3 3 1 171 15 17 1h15l13-5 15-8h4v2l9 3 9 2-3 2-16 8-12 3-15-1-28-3-1-1-182-16-3-3z" fill="#BCC9D1"/>
<path transform="translate(1365,822)" d="m0 0 4 1 8 4 6 2-1 3-16 8-7 2h-13l-21-3-115-11-47-4v-1h18l88 8 41 4h13l1-1 17-1 11-4z" fill="#A4B5BC"/>
<path transform="translate(369,134)" d="m0 0 6 2 6 3-1 3-10 6 4 5v3l-9 7-10 5-8 6-5-2-2-4-1-8h3l9-9-2-5-4-5v-2l18-1 5-3z" fill="#FDE78B"/>
<path transform="translate(869,98)" d="m0 0 9 1-3 14-8 1-2-2-7 7-10 8-14 13-8 7-7 7-8 7-16 15-4-1 1-5h2l2-4 11-10 21-21 5-4 14-14 8-7z" fill="#FD9621"/>
<path transform="translate(1451,312)" d="m0 0h2l-5 15-1 6-8 11-9 9-14 7-48 16-2 1h-10l-7-2 2-2 43-14 21-7 11-6 8-7 7-11z" fill="#8AD4FD"/>
<path transform="translate(1275,324)" d="m0 0h4l7 22 5 16v4l-15 5-4-8-9-27-2-4v-3z" fill="#8AD7FE"/>
<path transform="translate(1133,147)" d="m0 0 3 1 2 7-9 6-12 11-14 15-9 12-7 10-7 15-6 1 2-8 9-19 7-11 10-13 11-12 8-8 9-6z" fill="#518797"/>
<path transform="translate(860,145)" d="m0 0h22l12 2 6 4 1 2v8l-3 6-4 1-1-1-2-10-9-3h-22l-26 2-13 3-9 7-6 7-2 3-1 12-4-5 2-9 7-8 7-7 7-5 17-6 10-2z" fill="#538695"/>
<path transform="translate(883,97)" d="m0 0 2 2 1 12 6 9 14 9 12 6-14-9-13-9-1-1v-5l5-4 5 1 9 9 8 6 7 9 7 12 3 11-1 3h2v-5h1v6h-3v3l3-1v2l-5 2-3-7v-6l-5-8-7-6-24-12-7-6-4-8v-10z" fill="#C7E1EB"/>
<path transform="translate(597,247)" d="m0 0 2 1-4 6 4-3-1 4-10 17-8 20-5 22-1 5v11l22 33 11 19 8 20 2 10-5 1-7-24-9-19-14-22-13-19v-11l3-18 5-18 7-16 10-16z" fill="#6F8591"/>
<path transform="translate(821,296)" d="m0 0h19l8 4 1 16-2 3h-22l-10-3-2-3 2-13 3-3z" fill="#FD0E6F"/>
<path transform="translate(907,138)" d="m0 0 6 1 11 7 1 1-1 9-5 5-20 12-18 12-1-4 5-5 8-9 5-1 2-5v-10l-4-2 5-5z" fill="#FE096E"/>
<path transform="translate(879,126)" d="m0 0 4 1v2l6 2 16 5 4 2-8 7-4 3-15-2h-22l-14 1 4-5 11-8 5 1 10 4v-2l-6-2-3-5z" fill="#FE9420"/>
<path transform="translate(694,120)" d="m0 0 2 1-6 5-1 4 7-3 6-5 1 2-4 5-10 8-4 1 2-1v-5l-3-1-5 4v5l4 1-3 2 5-2 13-10 4-2 2-4 7-5v5l-6 7h5l-1 4-17 12-10 6-3 1-11 1-2 2-2-9h4l1-5 10-13 8-7 3-3z" fill="#C8E3ED"/>
<path transform="translate(795,326)" d="m0 0 4 2 1 4h-2l-2 5 1 6-1 2 10-1-1-16h1l1 6v11l-2 10-4 4-14 3h-11l2-6v-23l1 4 9-4 2-5h5z" fill="#A7DFFD"/>
<path transform="translate(344,296)" d="m0 0h7l6 3 14-1 13 5 5 1-2 2-1 4-8 8-3 7-6 3-3 5-1-3 8-17 5-1-1-4 1-3-8 7-5 5-4 1-4-1-4 1-2-5-3-1v-2l-3-1z" fill="#FECA5A"/>
<path transform="translate(260,314)" d="m0 0h1v14l-5 15-3 4h-17l-14 2-9 3-12 3-5 2-3-1 14-9 18-8 20-7 7-5 7-11z" fill="#FE9A02"/>
<path transform="translate(1397,269)" d="m0 0h10l12 6v2h2l3 6v7l-6 5h-11l-10-5-6-7-1-6 3-6z" fill="#FDFEFE"/>
<path transform="translate(902,276)" d="m0 0 5 1 5 4 9 4 1 4v9l-2 4-16-6-27-4 2-4 7-6 10-5z" fill="#FDFEFE"/>
<path transform="translate(318,364)" d="m0 0 7 6 2 2 1 6 15 1 5 3h14l8-2h8l6 4 7-1 4-1-3 4-24 3-14 1-4 1h-15l-8-4-6-6-3-10z" fill="#FC106E"/>
<path transform="translate(1245,296)" d="m0 0 9 1 8 2 1 2-16 5h-3v2l-5 5-3 6-1 17-1 3v8l3 10 5 12 9 13h2v4h-8l-8-17-6-20-2-20 1-13-9 3 2-4 16-15z" fill="#8DD8FD"/>
<path transform="translate(838,65)" d="m0 0 3 1 2 5-1 10-8 41v9l-12 11h-1l1-10 8-36 3-14v-9l-1-5 6-1z" fill="#48DDD6"/>
<path transform="translate(434,392)" d="m0 0 4 1 14 13 8 7 14 12 8 7 3 4-1 7-4-2-38-28-1-5-1-6-3-3v9l-2-4z" fill="#5BFC9E"/>
<path transform="translate(121,376)" d="m0 0h5l6 5 15 1v1h-16l4 7 8-4 8-3 4 1 4 3h3l-1 6 4 2-1-4v-7h3l1 2 7 3 4 3 10 4 4 2-4-5-3-1v-2h11l5 3-4 6-9 1-9-5-13 2-4 1h-7l-7-2-1-1-16-2-3-7-8-7z" fill="#FED74C"/>
<path transform="translate(864,300)" d="m0 0h5l-3 5 1 13-4-1v-2l-3 3-1 3-2 15-4 6-15 14-4 3 2-4v-1l-7 8-6 10-6 17 3 2h-7l2-1 1-7 5-13 10-16 3-3v-3l6-3 11-10 3-3 3-17h-7l-2-4v-10l2 2z" fill="#CBE3EB"/>
<path transform="translate(1128,263)" d="m0 0 4 1-9 5-7 6-7 12-4 17v15l5 17 5 9v4h-5l-6-10-5-13-1-4v-24l5-13 6-10 6-5 4-4z" fill="#20313B"/>
<path transform="translate(1127,814)" d="m0 0h4l2 3 12 2 17 2 52 2 6 1 22 1 13 2 65 6 4 2-1 1h-13l-105-10-24-2h-26l-22-2-5-3z" fill="#C0D0D8"/>
<path transform="translate(437,399)" d="m0 0 3 1 2 4v9l-1 5-3 58-1 5h-5l-1-1v-15l1-19 1-36 3-2z" fill="#00FD52"/>
<path transform="translate(1150,214)" d="m0 0h3v2h-2l-1 4-15 5-16 5v2l3 3 7 1v1l-25 3-7 1-3-1-4 1 1-4 2-1 2-10 17-7 2 3v3l9-1 23-7h2v-2z" fill="#A5E0FE"/>
<path transform="translate(767,48)" d="m0 0 7 6 2 3h-5l-2 4-2 1-2 12-9 42-2 8-2 2-5-6h2v-7l11-53 4-8z" fill="#45DCD4"/>
<path transform="translate(273,141)" d="m0 0h11l9 5-2 5-8 6-5 2 4 16 5 15-1 3-10-23v-11l-10-1-5-3-2-2v-5l8-5z" fill="#FB166C"/>
<path transform="translate(1133,809)" d="m0 0h16l34 4 13 1v1h-6v2h2v2h-13l-9-1h-19l49 3 5 1v1l-43-1-26-3-5-3v-2l-3-1z" fill="#667B8A"/>
<path transform="translate(731,164)" d="m0 0 5 1 9 10 2 1-2 4-13 10-5-1-12-6 1-8 6-7z" fill="#FBFCFC"/>
<path transform="translate(727,153)" d="m0 0 9 1 15 6 10 9 6 4 5 3 5 6v3h2l8 16 3 7v20h-2l-6-7-1-23-3-4-2-5-11-13-2-1v-2l-14-7-15-3-7-8z" fill="#7195A1"/>
<path transform="translate(888,235)" d="m0 0h5l7 10v2h2l-2 5-9 8-6 3-4-1-8-10 1-7 7-6z" fill="#95C7FE"/>
<path transform="translate(1359,471)" d="m0 0h1l1 16-3 85-2 73-2 25-2 54-2 39h-1v-29l4-111 5-116v-23z" fill="#FEDC52"/>
<path transform="translate(1289,366)" d="m0 0h3l4 15-1 1-36 4h-6v-7l8-4z" fill="#528898"/>
<path transform="translate(400,225)" d="m0 0 8 1 9 4 6 4 5 5 2 3-1 5-3 2-10-1-9-4-8-6-4-5 1-5z" fill="#FDE8B7"/>
<path transform="translate(686,151)" d="m0 0 2 1 1 7 4 4 7 12 1 2-18-1-9-4-6-7-1-2v-7l1-1 11-1z" fill="#58FC9C"/>
<path transform="translate(887,94)" d="m0 0 5 1 11 8 13 13 10 15 8 16 1 4v7h-2l-1-8-5-12-10-14-11-9-8-7-4 1-3 2v5l13 9 16 10 1 2-6-2-19-11-7-6-4-7v-14z" fill="#455E6A"/>
<path transform="translate(814,222)" d="m0 0h1l1 14-6 8-4 4-1 2h-2l-1 3-15 10-12 5-4 1h-7l-5-2 4-2 11-5 11-6 13-10 9-10 6-9z" fill="#B6D2DD"/>
<path transform="translate(701,318)" d="m0 0 4 2 10 15 12 17 12 19 6 10-1 4-14 10-12 7h-9l5-4 12-7 11-9-1-5-9-16-12-18-14-20-2-3z" fill="#F8FAFB"/>
<path transform="translate(657,820)" d="m0 0 2 3 3 3 142 12 46 4 21 1v1l-6 1h-15l-39-3-149-13-7-3-1-4z" fill="#E5EEF2"/>
<path transform="translate(861,315)" d="m0 0h2l5 5 10 8 16 8-3 3-7 5-8-1-10-6-4-4h-3l-2 3 1-15z" fill="#FDFEFE"/>
<path transform="translate(879,364)" d="m0 0h9l1 1 7 1 2 4v12l-1 5-24-3 1-10 4-9z" fill="#08BB58"/>
<path transform="translate(199,207)" d="m0 0h15l4 4v6l3 3-1 4-6 5-6 2h-4v-2l-9-2v-4l3-4-1-5-2-2v-4z" fill="#F5BB74"/>
<path transform="translate(191,819)" d="m0 0 2 4 5 2 81 7 62 5 44 4 16 1v1h-19l-136-10-43-4-9-2-4-4z" fill="#8AA1A2"/>
<path transform="translate(875,348)" d="m0 0 4 1 9 1 2 1-8 9-1 2 5 1v1l-7 1-4 9-2 10-1 1-16 1 1-4 9-16 10-15z" fill="#CAE3ED"/>
<path transform="translate(201,319)" d="m0 0 8 1 5 2-4 4-9 7h-2l-2 4-10 9-7 9-6 1-1 3-5 2v-5l5-3 3-8 1-4h2l1 4 1-2h2l1-6 9-13z" fill="#FCFCF9"/>
<path transform="translate(854,238)" d="m0 0 8 2 5 5-1 13-2 11-5-4 1-10-5-2h-17l-12 1h-4l1-3 8-2-1-4 3-1 2 2 4-2h3l1 2 4-2h7z" fill="#EDC4A0"/>
<path transform="translate(184,317)" d="m0 0h15l5 1-4 3-7 4-9 14-1 4h-2l-1 3h-1v-5h-2l-1 8-3 5-4 1-2-5 2-8 8-15z" fill="#FDB25B"/>
<path transform="translate(318,361)" d="m0 0 5 1 2 3 3 1h18l4-2 1 8-7 3 1 3 9 2 7 1-1-12h3v2l5 2 8 5v1l-14 4h-14l-5-3-15-2-3-7-7-7z" fill="#FDDA5D"/>
<path transform="translate(952,818)" d="m0 0 6 4 2 3-1 4-7 6-12 4-7 1h-12l-6-1 1-3 16-5 10-7z" fill="#BCC9D1"/>
<path transform="translate(1244,307)" d="m0 0 3 1 1 4 5 5 7 10v2l-10 4-7 2h-6l-2-3v-13l4-8z" fill="#CCE5EE"/>
<path transform="translate(874,384)" d="m0 0h7l16 3v2l6 1 2 2-1 16h-2v-2l-10-3-15-4v-14z" fill="#A6E0FE"/>
<path transform="translate(717,105)" d="m0 0h5l-2 5-6 8-11 9-5 5-10 8-6 4-3-1 3-2-3-1-1-5 6-5 4 2-1 5 8-6 6-5 1-3-7 6-6 1 1-5 4-4-2-1 11-8z" fill="#B2CDD8"/>
<path transform="translate(1424,809)" d="m0 0 1 2 4 2 2 2-1 7-10 6-13 3h-17l-4-2h3v-2l16-5 7-6z" fill="#BCC8D1"/>
<path transform="translate(819,263)" d="m0 0 4 1 2 12 4 8 6 2 8 2 3 2v2l-7-2h-5l-6 4-2-1v-2h-10l-1-2h6l1-2-5-1-7-6-2-6v-5l4-4z" fill="#CCE4ED"/>
<path transform="translate(722,152)" d="m0 0 5 1 7 9 1 2-11 4-6 5-3 9-9-3 1-13 4-8 5-4z" fill="#B2CFDA"/>
<path transform="translate(1345,375)" d="m0 0h7l21 6 4 3-2 14-5-1-14-5-7-2-1-12-9-1v-1z" fill="#FCEABE"/>
<path transform="translate(903,409)" d="m0 0 5 2 2 3-1 9-3 58-2 1-5-1 2-34z" fill="#579FFE"/>
<path transform="translate(790,83)" d="m0 0h8l8 3-2 13-2 1-8-2h-7l-11 4-5 2 1-8 6-7z" fill="#B1CEDA"/>
<path transform="translate(1389,702)" d="m0 0h8l7 6 5 10 3 12v37l-3 17-5 16-4 8-4 3 2-6 3-10 3-7 4-21v-34l-4-18-4-7-2-4h-7l-5 2-2 4-8 13-5 16h-1l1-9 5-13 7-11z" fill="#1F2F37"/>
<path transform="translate(408,384)" d="m0 0 13 1 12 4 4 3h-3l1 2 1 14-5-2-8-4-6-2-7-1-1-1v-10l1-3z" fill="#CCE5EE"/>
<path transform="translate(1339,299)" d="m0 0 5 1 14 40 3 10 3 7v3l-6 2-7-20-5-14-8-24z" fill="#20313C"/>
<path transform="translate(390,303)" d="m0 0h8l7 4-4 4-6 2h-7l-2-7zm-4 6m-1 1m-1 1 2 1v6l3 2-6-1v2h-2l1 4h-2l-3 11-9 19-2 2v8l-2-2v-9h2l1-4v-4h-2l1-5 4-3 2-8h-4l1-3 6-2 2-7z" fill="#EECE44"/>
<path transform="translate(1144,285)" d="m0 0 5 1 8 7 4 4 5 11v18l-3 7-5 6h-2l-1 10-3 3-7-9-2-5 3-2h3l2 4h2l6-10 1-5v-9l-2-10-5-10-9-10z" fill="#20313C"/>
<path transform="translate(1131,248)" d="m0 0h15l-2 4-10 10-10 4-5 1-4 4-19 1-17 2 3-3h3v-2l12-3 25-3 4-7h2v-3h2z" fill="#76909E"/>
<path transform="translate(1348,94)" d="m0 0v3l-9 12-15 16-4 3h-3l-5-7 1-7 19-10z" fill="#4272AB"/>
<path transform="translate(767,315)" d="m0 0h6l3 10-7 2-21 7v13l-3 3 1-10-5-1-2-4h4l-2-4h4l3-6 7-6z" fill="#CBE4EE"/>
<path transform="translate(869,98)" d="m0 0 9 1-3 14-8 1-2-2-7 7-10 8-4 2-5-1v-3l8-8 8-7z" fill="#FB9423"/>
<path transform="translate(285,216)" d="m0 0h2l1 23 3 20 5 23 1 4v19l-3 10-4 4 1-5v-22l-6-41z" fill="#1C2C35"/>
<path transform="translate(863,476)" d="m0 0h13l12 2v15l-14-2h-12z" fill="#7792A0"/>
<path transform="translate(361,344)" d="m0 0 5 2 2 4-2 5h-1v8l4 5v2l5 2 7 2 14 2 3 2-2 4-7 3h-5l-6-4-7-1 3-2-11-7-6-7v-5l3-9z" fill="#FDD223"/>
<path transform="translate(806,88)" d="m0 0 4 2 7 8 2 5h3l1 7-4 17-3 19-3 1 1-9 4-18h-3l-1-7h-2l-4-8-5-4 2-12z" fill="#7793A0"/>
<path transform="translate(895,107)" d="m0 0 5 1 9 9 8 6 7 9-1 3h-2l-4-1-13-8-13-9-1-1v-5z" fill="#F0F6F8"/>
<path transform="translate(847,238)" d="m0 0h7l1 3-1 3-10 2h-3l1-2-3 1-2 2-4-1v-2l-2 2v3l-8 3-1 2 6-1v2l-19 4 1-9 4-5 25-6z" fill="#FC0F6F"/>
<path transform="translate(1375,401)" d="m0 0 6 3-2 41-1 19-1 8h-4v-26z" fill="#FED411"/>
<path transform="translate(925,819)" d="m0 0 1 2 6 1 5 2 1 3-6 5-8 2h-11l-10-2-3-2h-6l2-7 3-3 5 1v3 1l13 1 6-4z" fill="#476270"/>
<path transform="translate(396,476)" d="m0 0h13l11 2v11l-1 3-22-1v-2h-2v-12z" fill="#7A95A1"/>
<path transform="translate(433,818)" d="m0 0 3 3-1 4 14 1 6-4 3-3v2l6 1 5 2 1 3-6 5-8 2h-11l-11-3-5-1h-3l2-6z" fill="#486270"/>
<path transform="translate(1339,154)" d="m0 0h3l-1 7-5 12-8 21-2 5h-1v-17l2-25z" fill="#8CD8FE"/>
<path transform="translate(1068,265)" d="m0 0 6 2 6 4v2l-6 3-6 8h-19l1-6 9-8z" fill="#63798A"/>
<path transform="translate(1142,172)" d="m0 0 7 5 1 2v17l-4 4-7 8-2-1-1-4-4-4 2-4 3-5z" fill="#7793A1"/>
<path transform="translate(1294,211)" d="m0 0h1l-1 27-1 1h-5v-7l-9-3-5-13v-2l18-1z" fill="#F8FBFC"/>
<path transform="translate(1337,467)" d="m0 0h11l11 2 1 2-1 13-22-2z" fill="#F5B975"/>
<path transform="translate(570,326)" d="m0 0 2 1v3l3 1 21 32 11 19 8 20 2 10-5 1-7-24-9-19-14-22-12-17z" fill="#5C7C8A"/>
<path transform="translate(1190,815)" d="m0 0h13l32 3-2 2 11 1-3 2h-18l-12-1-45-2-15-1-4-2h23l22 2v-2h-2z" fill="#4B6880"/>
<path transform="translate(157,312)" d="m0 0 9 1 7-1 11 4-2 5-3 3v-3l-6 5-5 5-4 1-9-15v-3h2z" fill="#FEC95A"/>
<path transform="translate(483,315)" d="m0 0 5 3 5 7 3 7v12l-3 1h-7l-4-3v-22z" fill="#F80D6E"/>
<path transform="translate(715,102)" d="m0 0h7v3l-9 3-13 7-12 9-5 4-7 8-7 10-1 3h-3v-6l6-9 9-10 15-12 14-8z" fill="#538496"/>
<path transform="translate(459,713)" d="m0 0 4 2 6 11 3 13v38l-4 20-6 16h-5l2-4 5-12 4-21v-35l-2-9-3-11-4-5z" fill="#1F2E37"/>
<path transform="translate(1264,128)" d="m0 0h7l5 4v5l-2-1-3-5-3 1-3 8v6l3 2-7 4h-6l-5-4v-7l4-6 6-5z" fill="#CAE2EA"/>
<path transform="translate(1136,155)" d="m0 0h2l-1 4-5 3-3 3h-2l-2 4-4 4-6 5-4 6-4 5v3l-4 2-3 5h-2l-2 5-5 4-4 8v5l-7 3 2-6 6-12 12-16 18-20 7-7z" fill="#C7E0E9"/>
<path transform="translate(675,370)" d="m0 0 3 1-1 6-10 10-11 9-17 13-4 2h-6l5-5 16-13 11-9 12-12z" fill="#263843"/>
<path transform="translate(1397,810)" d="m0 0 5 3 7 3-1 4h-7l-1 3-6 2-14-1-12-4 1-6 3-3 4 2 3 3 2 1h9l6-5z" fill="#46616F"/>
<path transform="translate(283,370)" d="m0 0 2 1-1 2-4 2-7 8-8 7-10 10-3 1h-12l5-6 17-12 16-11z" fill="#FED412"/>
<path transform="translate(776,38)" d="m0 0h21l16 3 20 8 7 6v2l-4-1-12-6-21-6h-32l1-4z" fill="#57879A"/>
<path transform="translate(1249,195)" d="m0 0 24 4h22l11-1-1 5-20 3-18-1-17-4-1-1z" fill="#1F3039"/>
<path transform="translate(1140,209)" d="m0 0 4 1 4 4v3l-21 7-10 2-3-1-1-6 19-7z" fill="#45DED6"/>
<path transform="translate(791,208)" d="m0 0 5 2 5 7 4 7 3 3-8 9-4 1-5-6-2-1 1-5z" fill="#00B554"/>
<path transform="translate(478,322)" d="m0 0 2 4-1 5h-7l1 2 7 2 1 4h-12l-26-4-1-2 4-2 15-1 8 1-2-1-1-5 5-1 4 1v-2zm-16 4 4 1-3 1z" fill="#EB930C"/>
<path transform="translate(886,154)" d="m0 0 5 2 2 4v8l-7 8-4 2-2 6h-1l-1-16-1-1h-6l-3 1v-3l8-2 9-7z" fill="#EAB177"/>
<path transform="translate(308,194)" d="m0 0 7 1 8 4 10 8 2 4 4 2 6 7 9 16v2h2l2 5v4h-2l-6-10v-2h-2l-3-5-5-5v-3l-3-1v-3l-4-2-3-5v-3l-4-1-6-5-12-6z" fill="#FDF3D9"/>
<path transform="translate(770,207)" d="m0 0 5 5 5 6-1 6-6 7-5 2-7-10 1-4 4-2v-6z" fill="#F9FBFC"/>
<path transform="translate(261,155)" d="m0 0 9 3 6 1 1 11 4 9v8l-4 1-1 2-7-15-8-18z" fill="#FEC55A"/>
<path transform="translate(813,113)" d="m0 0h1l1 7h3l-2 14-2 8v4l4-1-6 7-6 5v-3h-6l-1-5 3-7 5 1 2-6z" fill="#7C96A1"/>
<path transform="translate(795,326)" d="m0 0 4 2 1 4h-2l-2 5 1 6-1 2 3 1-10 1h-9l-2-6v-8l1 4 9-4 2-5h5z" fill="#89BFFE"/>
<path transform="translate(359,141)" d="m0 0 9 2 2 9-4 6-3 2-12 2h-2l1-5-2-1 4-4 1-3h3l1-7z" fill="#F5B974"/>
<path transform="translate(655,824)" d="m0 0 4 3 3 1 171 15 14 2v1l-18-1-126-11-45-4-3-3z" fill="#829BA1"/>
<path transform="translate(888,304)" d="m0 0h8l6 2v2l10 3 15 5-1 5-4 1-5-2v-2h-6l-13-4-10-5-1-4z" fill="#B3CED9"/>
<path transform="translate(779,216)" d="m0 0h2l3 6 5 6-2 5-4 7-8 5-7-12 8-6 3-5z" fill="#B2CDD8"/>
<path transform="translate(1093,188)" d="m0 0h3v2h2l-1 5-10 14-7 15-6 1 2-8 9-19 5-8z" fill="#314145"/>
<path transform="translate(177,268)" d="m0 0 7 1 2 9 1 1v16l-5 10h10v2h-15l-6-4 1-3 4 3 4 1 1-9-2-14-2-7z" fill="#1C2C35"/>
<path transform="translate(813,313)" d="m0 0 4 3 8 2 21 1v1l-20 1-8 3v17l-4 8-6 5v-3l3-4 1-4v-18l-3-3-2-6 1-1h5z" fill="#C3DDE7"/>
<path transform="translate(778,73)" d="m0 0 20 5 9 2-1 6-8-2h-8l-16 8 2-12z" fill="#45DED6"/>
<path transform="translate(1335,334)" d="m0 0 4 1 4 12v2l-18 6h-3v-9l11-11z" fill="#F9FBFB"/>
<path transform="translate(768,45)" d="m0 0 4 1 7 6 16 5 13 3 1 1v5l-3 1-20-5-6-3-10-7-3-5z" fill="#C9E3EE"/>
<path transform="translate(1093,485)" d="m0 0h2l2 15-18 1-2-10v-4z" fill="#FECA5D"/>
<path transform="translate(934,729)" d="m0 0 3 3 2 5 1 12v28l-4 20-5 14-3 5-2-3 1-4 4-8 5-25v-33l-2-10z" fill="#192931"/>
<path transform="translate(884,295)" d="m0 0h8l2 2 16 5 8 3-1 5-4 1-21-7-9-2-2-2v-4z" fill="#FDFEFE"/>
<path transform="translate(784,61)" d="m0 0 17 4 1 2 6 2-1 7-12-1-15-5 2-6z" fill="#45D7D0"/>
<path transform="translate(1139,159)" d="m0 0h2v21l-4 12-6 7-35 20-8 4-3-1 8-5 28-16 9-7 5-8 2-6z" fill="#FAFCFC"/>
<path transform="translate(1337,315)" d="m0 0h2l11 33v3l-6 1-11-32 1-4z" fill="#22343E"/>
<path transform="translate(369,134)" d="m0 0 6 2 6 3-1 3-12 7v-6l-11-1-1 7h-3l-1 2-7-10v-2l18-1 5-3z" fill="#FDE68F"/>
<path transform="translate(759,194)" d="m0 0 9 9v2h2v2h-3v2l-9 7-4-2-4-6 4-4-3-1v2l-4 1 1-3h2v-2l7-5h2z" fill="#F4F7F8"/>
<path transform="translate(1517,249)" d="m0 0h2l6 10 4 12v8l-1 2-4-1-7-14-2-12z" fill="#4D8799"/>
<path transform="translate(323,231)" d="m0 0 2 2 5 13 4 8 4 16 2 7v4l-7-1-2-7-3-14-2-13-3-12z" fill="#FDDEA3"/>
<path transform="translate(1092,226)" d="m0 0h3l-1 10-3 2-1 3 6-2 2 1 4 1-15 4-6 2-1-2-1-12-1-2z" fill="#44D6CF"/>
<path transform="translate(1241,827)" d="m0 0h14l65 6 4 2-1 1h-13l-62-6-7-1z" fill="#EDF4F6"/>
<path transform="translate(668,155)" d="m0 0h11l1 9 6 8v4l-9-2-7-6-3-5v-7z" fill="#02F354"/>
<path transform="translate(611,495)" d="m0 0h12l2 13-18 1-2-11 1-2z" fill="#4D8898"/>
<path transform="translate(825,299)" d="m0 0h9l9 1 3 3v3l-2 1 1 4-2 6h-9l-15-2 1-4 7-2 9 1 5 1-1-9h-13l-3 3-1-4z" fill="#F3B875"/>
<path transform="translate(791,252)" d="m0 0 4 1-2 6-10 6-12 4h-7l-5-2 4-2 11-5 11-6z" fill="#BCCAD3"/>
<path transform="translate(1105,213)" d="m0 0 4 2 3 2v3l-15 6-13 4-7 1-2-4 13-5z" fill="#C6E0EA"/>
<path transform="translate(886,123)" d="m0 0 5 1 10 6 10 4 10 7 6 7 2 6-2 2-3-9-13-8-22-7-6-3v-2l-3-1v-1h6z" fill="#AFCAD5"/>
<path transform="translate(314,347)" d="m0 0 3 2-1 4-11 9-9 4-5 5-13 12-9 9-5 2 2-4 3-3 2-4 7-6 3-4 6-3 13-10 10-9z" fill="#FEDEA8"/>
<path transform="translate(871,311)" d="m0 0 5 2 8 6 19 8-2 4-8-1-14-7-4-1-5-2-2-2 1-5z" fill="#FDFEFE"/>
<path transform="translate(135,495)" d="m0 0h10l4 3 3 1v-2h3l1 9 9 1v1l-15 1h-11l-3-12z" fill="#00B654"/>
<path transform="translate(657,820)" d="m0 0 2 3 3 3 34 3 62 5v1l-16 1-80-7-7-3-1-4z" fill="#C5DEE7"/>
<path transform="translate(1283,39)" d="m0 0 14 2 4 2-1 3-6 3h-15l-7-3-1-4 3-2z" fill="#4C6672"/>
<path transform="translate(374,255)" d="m0 0h5l1 5h2l1 7v14l-4 10h6v1l-11 1-6-4-1-4 4 2 5 2 1-4v-20h-2z" fill="#1A2933"/>
<path transform="translate(807,45)" d="m0 0 8 1 16 6 9 5-4 2h-23l-5-1v-1h6v-7l-4-3z" fill="#C8E1EA"/>
<path transform="translate(881,313)" d="m0 0 6 1 18 7 14 4 2 3-1 1h-7l-17-4-13-6-3-2z" fill="#B3CED8"/>
<path transform="translate(771,113)" d="m0 0 11 2 16 3 9 1v5l-1 1-14-1-20-5-2-1z" fill="#2E404A"/>
<path transform="translate(292,146)" d="m0 0 1 2-4 5-9 6h-2l4 16 5 15-1 3-10-23v-11l-10-1-5-3-2-2 1-4 4 3 10 3 6-1z" fill="#1E2E36"/>
<path transform="translate(299,828)" d="m0 0 26 2 38 4 16 1v1l-26 1-23-2-4-1-17-1-6-2h-6l-2-2z" fill="#446576"/>
<path transform="translate(1403,803)" d="m0 0 3 1 16 4 2 2-12 7h-2l-1 3-1-2 1-2-10-3-1-4z" fill="#8FA5A2"/>
<path transform="translate(247,292)" d="m0 0 10 1 2 1v10l-5 5-4-1-7-8v-5z" fill="#FDE8B7"/>
<path transform="translate(447,164)" d="m0 0 5 1 9 8-1 8-2 1h-30l1-2 20-2 5-2-1-4-16-4v-1l8-2z" fill="#FDE9BC"/>
<path transform="translate(906,265)" d="m0 0 12 6 7 2h11l-1 5-5 4h-3l1-5h-7l-2 4-6-2-6-4-2-8z" fill="#FDFEFE"/>
<path transform="translate(398,237)" d="m0 0 9 6 9 4 10 1 3-1-1 6-2 3h-8l-4-3-11-3v-2l-5-1-2-1v-2l4-1z" fill="#F4BA73"/>
<path transform="translate(1328,332)" d="m0 0 1 3h3l-2 4-7 7v7l-7 1-2-5-3-3v-2l2-2v-2l6-2h4l1-4h4z" fill="#B2CDD8"/>
<path transform="translate(1241,309)" d="m0 0h4l-1 14v11l-1 1h-6l-2-3v-13l4-8z" fill="#FDFEFE"/>
<path transform="translate(778,192)" d="m0 0 7 6 5 10v20h-2l-6-7-1-23-3-4z" fill="#7494A1"/>
<path transform="translate(189,820)" d="m0 0 4 5 4 2 26 3 30 3v2l-23-1-35-3-7-2-2-3 1-4z" fill="#BED0D7"/>
<path transform="translate(162,380)" d="m0 0 9 1 8 6 7 3v2l4 1 3 3v2l-4-1-12-5-5-4-5-2v-2h-3l1 11-5-1 1-6-6-2 4-4z" fill="#FED41D"/>
<path transform="translate(839,232)" d="m0 0h22v2h-15l-1 3 2 2-18 3-7 2-4-1 1-5 5-1z" fill="#C8DFE6"/>
<path transform="translate(191,819)" d="m0 0 2 4 5 2 70 6v1l-9 1h-13l-43-4-9-2-4-4z" fill="#8DA3A2"/>
<path transform="translate(929,813)" d="m0 0 15 2 8 3-5 4-9 5-1-3-5-1-6-2 1-4z" fill="#8FA5A1"/>
<path transform="translate(462,812)" d="m0 0 9 2 11 3v3l-10 6h-3v-2l-5-1-6-2 1-4z" fill="#90A5A2"/>
<path transform="translate(859,332)" d="m0 0 4 1 7 6 3 3 5 2h8l7 3-1 3-9 1-5-2-8-2-8-6-4-5z" fill="#B8D3DD"/>
<path transform="translate(708,231)" d="m0 0 4 1-1 11-5 18-9 17-5 7-2-1 1-4 6-10 5-12 5-19z" fill="#566E79"/>
<path transform="translate(839,255)" d="m0 0h10l3 1v4l-17 1-20 4-7 1v-4l23-6z" fill="#FE096F"/>
<path transform="translate(893,335)" d="m0 0 10 1 6 2-4 4-10 6-8-2-2-1h-7l-8-4 2-1 7 3h5l9-6z" fill="#C9E2EC"/>
<path transform="translate(602,332)" d="m0 0h6l6 5 1 9-3 3h-5l-6-7-1-6z" fill="#F4FAFC"/>
<path transform="translate(885,99)" d="m0 0 5 2 7 5-5 4-1 1v5l13 9 16 10 1 2-6-2-19-11-7-6-4-7z" fill="#B6DCEE"/>
<path transform="translate(883,97)" d="m0 0 2 2 1 12 6 9 14 9 9 5v2l-4-1-16-7-10-8-4-8v-10z" fill="#FAFCFC"/>
<path transform="translate(1127,372)" d="m0 0 22 1 4 2-10 3 2 3 6 2 7 5-1 3-5-1-16-10-9-7z" fill="#C6E0E9"/>
<path transform="translate(195,221)" d="m0 0 2 1-2 4 9 3v2l4 1-11 7-2 2-4-1-3-4 1-9z" fill="#FDE789"/>
<path transform="translate(909,338)" d="m0 0h8l-5 5-18 10-5 6-1 5-8-1 3-5 7-8 13-8z" fill="#FDFEFE"/>
<path transform="translate(173,192)" d="m0 0 4 1 4 5 3 8-1 7-4 1-6-7-2-6v-6z" fill="#FDE7B4"/>
<path transform="translate(1261,207)" d="m0 0 32 1v5l-1 1h-21l-7-2-3-1z" fill="#364953"/>
<path transform="translate(877,303)" d="m0 0 5 1 6 4 15 7 7 3-1 3-6-1-17-7-9-2-3-3-1-4z" fill="#FDFEFE"/>
<path transform="translate(892,242)" d="m0 0 5 5v3h3l-2 4-7 6-6 1 4-4 6-4 1-2-11 7h-2l-2-5v-4z" fill="#579FFE"/>
<path transform="translate(673,212)" d="m0 0h3v25l-4 13-6 8-4-1 2-4 5-8 2-8z" fill="#50636D"/>
<path transform="translate(326,125)" d="m0 0 5 2 4 7 1 4v7l-1 2-5-1-4-5-2-6v-8z" fill="#FDE7B5"/>
<path transform="translate(209,182)" d="m0 0 5 3 7 8-1 4-7 8-1 1h-19l3 6 3 3-1 5-8 7-2 4-2-3 9-9-1-5-6-8v-2l21-1 5-3 3-4-1-4-5-6v-2h-2z" fill="#FDFCF8"/>
<path transform="translate(876,291)" d="m0 0 23 3-1 2 16 6 5 2-1 2-16-6-9-3-1-1h-11l2 5 9 2-4 2-2 2-6-3h-7l-1 2-1-7 5-1v2l4 1-4-8z" fill="#CCE5EE"/>
<path transform="translate(383,262)" d="m0 0 11 6 14 8v1h-18l-6-2z" fill="#F9FCFC"/>
<path transform="translate(650,158)" d="m0 0 3 3-1 10-6 27-3-1-2-5 8-32z" fill="#2D414D"/>
<path transform="translate(184,317)" d="m0 0 10 1-5 7-5 5-7 10-5 1 1-6 4-8z" fill="#FF9A02"/>
<path transform="translate(385,304)" d="m0 0 4 1-2 1-1 4-8 8-3 7-6 3-3 5-1-3 8-17 5-1-1-4 2-3z" fill="#FF9A01"/>
<path transform="translate(363,117)" d="m0 0 5 3 6 7-1 4-7 7-3 1h-18l4 6 3 4-2 4-10 10 1-5 6-6h2v-4h-2l-3-4v-2l-3-1-1-4 24-1 5-6h2v-4l-3-1-5-6z" fill="#FDFCF9"/>
<path transform="translate(1305,339)" d="m0 0h3l6 21v4h6l1 1v6l-4 3h-6l-2-2 1-5h2l-5-18-2-5z" fill="#687F8E"/>
<path transform="translate(352,361)" d="m0 0h1l2 7 5 3 1 3v7l-14-1-4-3 1-3 7-2-2-6z" fill="#FED518"/>
<path transform="translate(873,323)" d="m0 0 6 1 10 3 7 3v2l9 1 7 1-1 4-13-2-10-2-13-7z" fill="#B6D0DB"/>
<path transform="translate(678,218)" d="m0 0h4v22l-4 12-5 8-4 1 2-5 4-8 2-10z" fill="#485C65"/>
<path transform="translate(823,213)" d="m0 0h2l1 11 1 2 5 2v3l21-1 5 1v1l-19 1-18 6 1-19z" fill="#9ABDCD"/>
<path transform="translate(680,826)" d="m0 0h12l69 6 6 1v1h-21l-37-3v-2h-10l-19-2z" fill="#4F6A77"/>
<path transform="translate(396,476)" d="m0 0h13l11 2v11l-1 3-22-1 1-2 10-2 6 1 4 2 1-10-6 2h-8l-8-3-1 10h-1v-12z" fill="#38B7AE"/>
<path transform="translate(929,284)" d="m0 0 4 1 4 5 3 6 1 8-2 8-4 4-6 2-1-2 1-2h3l1-7 1-2v-11z" fill="#FDFEFE"/>
<path transform="translate(751,242)" d="m0 0 9 1 6 2v1h-9l1 3 4 3 1 7-4 1-12-12-1-4z" fill="#64F9A4"/>
<path transform="translate(839,148)" d="m0 0 3 1-5 2v2l-3 3-13 3-9 7-6 7-2 3-1 12-4-5 2-9 7-8 7-7 7-5z" fill="#849DA2"/>
<path transform="translate(1231,346)" d="m0 0 3 1 3 10 5 12 9 13h2v4h-8l-8-17-6-20z" fill="#8FD8FF"/>
<path transform="translate(383,319)" d="m0 0 14 3 19 6 9 2 1 2-22-3-20-3-3-2v-3h2z" fill="#FB9028"/>
<path transform="translate(754,178)" d="m0 0 5 5-1 2h-3l2 4 3 5-2 2v-3l-3 1-5 5-4 3-4-1 4-5 7-5-1-3-5 1-3 1v2l-6 4h-2l1-4 12-9z" fill="#D0E2E8"/>
<path transform="translate(817,100)" d="m0 0 2 3h3l1 7-4 17-3 19-3 1 1-9 4-18h-3l-1-3z" fill="#4D8797"/>
<path transform="translate(799,353)" d="m0 0h5l-1 4-2 2-14 3h-11l3-7z" fill="#5DA3FE"/>
<path transform="translate(371,326)" d="m0 0h5l2 4-2 9-9 17-1 1v8l-2-2v-9h2l1-4v-4h-2l1-5 4-3 2-8h-4l1-3z" fill="#FCE49C"/>
<path transform="translate(616,225)" d="m0 0 5 1 1 4-3-1-5 5-10 12-4 6h-2l-2 3-2-1 4-6v-3l11-14z" fill="#568A99"/>
<path transform="translate(361,368)" d="m0 0 2 1v2l5 2 8 5v1l-14 4h-14l-5-3-10-1v-1h9l1-2 4 3 14 2-1-12z" fill="#FCCF64"/>
<path transform="translate(771,147)" d="m0 0 5 1 2 5v3l10 1v-2h4l-2 17-5-5-13-15z" fill="#F2F7F8"/>
<path transform="translate(694,120)" d="m0 0 2 1-6 5-1 4 7-3 6-5 1 2-4 5-10 8-4 1 2-1v-5l-3-1-5 4v5l4 1-3 2-4-1-1-6 4-5 8-7 3-3z" fill="#F1F5F6"/>
<path transform="translate(918,306)" d="m0 0 6 2 6 5-1 4h3l1 4-4 4-7 2v-4l4-3 1-4-9-2-9-3-7-3 3-1 8 3h3z" fill="#CBE4EE"/>
<path transform="translate(260,314)" d="m0 0h1v14l-5 15-2 1-1-7 1-4-7-1 6-7 6-9z" fill="#FF9517"/>
<path transform="translate(810,247)" d="m0 0 2 1-3 11 5-2 3 1-2 1 1 2-8 1v4l2 1-10 3 3-16 2-5z" fill="#F1D4AA"/>
<path transform="translate(809,61)" d="m0 0 22 1v6l-11 2-1-1-17-1-1-2h7z" fill="#567E8C"/>
<path transform="translate(788,306)" d="m0 0h7l3 5-27 4-3-4v-2l10-2z" fill="#9ED9FF"/>
<path transform="translate(421,158)" d="m0 0 16 8-3 1-8-1-15 3-4 4-3 5-4 2 2-6 5-6z" fill="#FDEABD"/>
<path transform="translate(1275,223)" d="m0 0h3l1 6 8 1 1 6-2 2h-10l-3-1-1-3v-7z" fill="#B2CDD8"/>
<path transform="translate(492,327)" d="m0 0 3 2 1 3v12l-3 1h-7l-4-3v-14l2 1 3 6 1 3 4-1z" fill="#303D42"/>
<path transform="translate(344,296)" d="m0 0h3l5 12v2h2l3 3v2h2l1-4 3-1h6l2-1-2 4-5 5-7-1-4 1-2-5-3-1v-2l-3-1z" fill="#FED411"/>
<path transform="translate(773,131)" d="m0 0 13 2 11 2-1 4-7-1v3h-8l-9-3z" fill="#8BA2AC"/>
<path transform="translate(601,373)" d="m0 0 4 5 8 18 4 14v2l-5 1-7-24-1-8-3-5z" fill="#598B9A"/>
<path transform="translate(1105,266)" d="m0 0h12l-2 5-19 1-17 2 3-3h3v-2l6-2z" fill="#8BA1A2"/>
<path transform="translate(1270,239)" d="m0 0h24l-1 3-6 1v4h-14l-2-1z" fill="#6B8593"/>
<path transform="translate(879,364)" d="m0 0 4 5v16l-10-1 1-10 4-9z" fill="#08FC59"/>
<path transform="translate(775,122)" d="m0 0 21 4 3 1v6l-9-1-16-4v-5z" fill="#283A45"/>
<path transform="translate(895,149)" d="m0 0 5 2 1 2v8l-3 6-4 1-1-1-2-10-3-1 2-4z" fill="#445C68"/>
<path transform="translate(884,370)" d="m0 0h8l1 8-1 7-1 1-8-1-1-2 1-12z" fill="#01B555"/>
<path transform="translate(868,306)" d="m0 0 2 1v2l4 1 1-2v2l14 3 17 7 1 2-10-3-13-5h-3l-2 2-6-4-4 2 1 5 5 2 4 1 5 4-5-1-7-1-7-5 2-1-2-9z" fill="#E1EFF5"/>
<path transform="translate(1297,325)" d="m0 0h6l4 3 1 8-3 2h-7l-3-3v-8z" fill="#FD116F"/>
<path transform="translate(932,282)" d="m0 0 6 5 4 8 1 4v9l-5 10-8 9h-2l-1 4-3 3v-3-3l5-4 3-3 1-5 4-2 2-4 1-7-2-10-6-8z" fill="#BDDAE5"/>
<path transform="translate(1270,130)" d="m0 0 5 5 1 5-6 8-6-2 1-9 3-6z" fill="#93A8A3"/>
<path transform="translate(667,219)" d="m0 0h3v12l-2 10-4 8-5 5-3-1 2-4 3-5h2l1-7z" fill="#32454E"/>
<path transform="translate(396,282)" d="m0 0h31l12 3 13 5 17 9 4 5-4-2-18-10-16-6-5-1h-30v2l-5-2z" fill="#FEDD52"/>
<path transform="translate(1403,819)" d="m0 0 5 1-3 3-16 4v2l-6 1-11-4-5-5h7l6 2 14 1 6-2z" fill="#77909B"/>
<path transform="translate(1138,149)" d="m0 0 4 2 4 5h-2l3 7 2 10v4l-4-2-2-2-2 3-1-17z" fill="#B1CCD7"/>
<path transform="translate(1053,275)" d="m0 0 17 4-2 5h-19l1-6z" fill="#4E8898"/>
<path transform="translate(862,242)" d="m0 0 4 1 1 2-1 13-2 11-5-4 2-20z" fill="#FD0B6F"/>
<path transform="translate(639,200)" d="m0 0 5 1 4 5 2 8-1 3-5-1-5-5-1-9z" fill="#FD106F"/>
<path transform="translate(878,103)" d="m0 0h2l2 9 5 9 1 2h-2v2h-6l-4-7v-13z" fill="#C5E3EF"/>
<path transform="translate(749,176)" d="m0 0h3l2 4-15 12-5 1-2-1 1-4 12-9z" fill="#22333D"/>
<path transform="translate(704,121)" d="m0 0 1 4-5 5-9 8-9 6-3-1 3-2-3-1-1-5 6-5 4 2-1 5 8-6 6-5z" fill="#9DB4BD"/>
<path transform="translate(262,341)" d="m0 0 1 3-8 12-5 5h-2l-2 4-2 2 2 2-5 3-5 9h-3l2-6v-3l5-7h2l2-4 3-3v2l7-6z" fill="#FEDD59"/>
<path transform="translate(1327,307)" d="m0 0h8v8l-3 3-4 2h-4l-2-3 1-6z" fill="#B2DFF5"/>
<path transform="translate(158,332)" d="m0 0 2 1v9l-6 10-3-1-1-3-1 2-1-4 4-11h3z" fill="#FDF0CA"/>
<path transform="translate(195,317)" d="m0 0 9 1-4 3-7 4-8 12-5 2-1-3 4-6 4-5 3-3z" fill="#FDD530"/>
<path transform="translate(1354,230)" d="m0 0 1 3-5 13-4 8-3 8h-2l-1 3h-2v-8l7-10 8-16z" fill="#95A9A5"/>
<path transform="translate(1143,303)" d="m0 0h2l2 14v7l-5-2-3-4-1-9 3-5z" fill="#1F303A"/>
<path transform="translate(791,57)" d="m0 0 8 1 9 2 1 1v5l-3 1-20-5z" fill="#B3CDD8"/>
<path transform="translate(1207,343)" d="m0 0h1v8l-8 16-4 2-7 4v2h-12v-2l13-4 9-7 5-12z" fill="#C7E1EA"/>
<path transform="translate(395,201)" d="m0 0 5 2 7 3h5l3-2 5-1h7l1-2v4l-7 1-9 4-7-1-6-3v-2h-4l-2 7h-2l-2 5-1 2-2-1 8-15z" fill="#FDFBF6"/>
<path transform="translate(1131,248)" d="m0 0h15l-2 4-9 9-3-1 4-5h2v-5l-8 7-6 7-2-1 4-7h2v-3h2z" fill="#8FA6A7"/>
<path transform="translate(1225,818)" d="m0 0h10l-2 2 11 1-3 2h-18l-23-2-1-2z" fill="#507B96"/>
<path transform="translate(831,244)" d="m0 0h2l2 2 4-2h3v2l11 1v2l-2 1-13 1-12 3h-4l1-3 8-2-1-4z" fill="#F5F1E7"/>
<path transform="translate(1133,817)" d="m0 0 67 4 5 1v1l-43-1-26-3z" fill="#859C9E"/>
<path transform="translate(334,256)" d="m0 0 2 3 7 22-1 4-7 8h-1l-1-6-1-4 1-3 7 1-6-21z" fill="#FCD47C"/>
<path transform="translate(721,113)" d="m0 0h1l1 6-8 10-5 4-5-1 2-4 8-8z" fill="#7A95A2"/>
<path transform="translate(819,153)" d="m0 0 3 1-5 5-8 7-4 5-3 3-2 9-1-2-4-2-2-3 8-7 12-11z" fill="#F6BD78"/>
<path transform="translate(1133,809)" d="m0 0h16l34 4 6 2v1l-19-1-14-2-8-1h-17z" fill="#466E98"/>
<path transform="translate(1149,179)" d="m0 0h1v17l-8 8v-3l2-4-1-5-2-2 1-6 2-2 4 3z" fill="#4D8898"/>
<path transform="translate(681,379)" d="m0 0h6l3 4-1 6-2 3h-5l-3-2v-8z" fill="#FC196F"/>
<path transform="translate(707,261)" d="m0 0 3 1-1 6-9 16-6 8-2-1 1-4 8-13z" fill="#42565F"/>
<path transform="translate(1127,814)" d="m0 0h4l2 3 12 2 16 2v2h-18l-13-2-3-3z" fill="#BDCAD1"/>
<path transform="translate(658,270)" d="m0 0 4 2 8 9 5 10 2 8h-2l-12-19z" fill="#E1EEF3"/>
<path transform="translate(1151,247)" d="m0 0 4 4-5 5-6 5-8 1 2-4 10-10z" fill="#4D8898"/>
<path transform="translate(913,114)" d="m0 0 5 5 9 14 7 14 1 4v7h-2l-1-8-5-12-10-14-6-5v-2h2z" fill="#577F99"/>
<path transform="translate(934,729)" d="m0 0 3 3 2 5 1 12v21l-3 2-1-29-2-10z" fill="#182730"/>
<path transform="translate(1293,333)" d="m0 0h2l5 6h5l4 13 1 8-4 1v-8l-3-10-4-1h-7l-2-3 1-4z" fill="#C3DFE9"/>
<path transform="translate(913,252)" d="m0 0 9 1 10 4 2 3-1 1h-8l-11-4-3-4z" fill="#578998"/>
<path transform="translate(330,244)" d="m0 0 4 5 7 16 5 12v5l-3 1-11-32-2-4z" fill="#FF9418"/>
<path transform="translate(762,171)" d="m0 0 8 3 7 8v3h2l5 10-1 3-11-14-7-8-3-3z" fill="#4B808F"/>
<path transform="translate(1266,827)" d="m0 0h33l2 1v2l15 1v1h-16l-33-3z" fill="#435A66"/>
<path transform="translate(268,226)" d="m0 0 1 2-3 6h-6l-1 5-5 5-5 1-1-2 4-6 14-10z" fill="#FDE9B9"/>
<path transform="translate(802,142)" d="m0 0 5 1 2-1v9l4-1-6 7-1-3h-6l-1-5z" fill="#93A8A3"/>
<path transform="translate(1146,336)" d="m0 0h3l2 4h5l-1 9-3 3-7-9-2-5z" fill="#D11966"/>
<path transform="translate(218,201)" d="m0 0 5 2 6 3-1 3-9 5h-2l-1-5-3-3z" fill="#FDE789"/>
<path transform="translate(1200,821)" d="m0 0h11l54 5v1h-16l-7-1-22-1-20-3z" fill="#2A3B44"/>
<path transform="translate(280,182)" d="m0 0h2l4 9v2l2 1-5 6-3-1-3-6-1-6 3-1 2 1z" fill="#FE9E11"/>
<path transform="translate(314,347)" d="m0 0 3 2-1 4-11 9-9 4-1 2-4-1 14-11z" fill="#FDDFAE"/>
<path transform="translate(1275,38)" d="m0 0h17l7 3-2 1-14-2-9 1-3 1 1 4 7 2h17v2l-7 1h-9l-8-3-3-3 1-4z" fill="#ADBABA"/>
<path transform="translate(469,779)" d="m0 0h1v9l-4 15-4 10h-5l2-4 5-12 4-17z" fill="#182830"/>
<path transform="translate(681,125)" d="m0 0h3l-2 5-5 5-8 11-1 3h-3v-6l3-5 5-4 6-7h2z" fill="#33464E"/>
<path transform="translate(177,341)" d="m0 0h2l1 4 2-2-1 11-7 2-1 3-5 2v-5l5-3 3-8z" fill="#FDE5AA"/>
<path transform="translate(314,214)" d="m0 0h2l1 2h4v9l5 16 2 9v5l-2-4-4-18h-2l-2-3-1-7h-1v-5l-4-1z" fill="#F3AF6D"/>
<path transform="translate(652,177)" d="m0 0h2v13l-2 13-2 2-2-2v-9z" fill="#3F535D"/>
<path transform="translate(657,820)" d="m0 0 2 3 3 3 34 3 3 1v2l-37-3-7-3-1-4z" fill="#C1D4DD"/>
<path transform="translate(332,315)" d="m0 0 2 4-6 10-3 6-12 14-10 10-4 3-2-1 13-12 11-12 3-7 4-7h2z" fill="#F2505D"/>
<path transform="translate(429,829)" d="m0 0 5 1 11 3 9 1v1h-5v3h-8l-10-4-5-4z" fill="#7E97A0"/>
<path transform="translate(910,255)" d="m0 0 4 1 11 4 10 1v5l-13-2-9-4-3-2z" fill="#F4F8FA"/>
<path transform="translate(384,191)" d="m0 0 3 1-1 6-9 9-3 1v-6l6-8z" fill="#FDE78C"/>
<path transform="translate(151,379)" d="m0 0 4 1-4 4-13 5-3 2-4-6v-2l16-1z" fill="#FED519"/>
<path transform="translate(731,336)" d="m0 0 6 1v16l-5-5-2-5-4-4 4-2z" fill="#74B2FD"/>
<path transform="translate(177,268)" d="m0 0 7 1v2h-2l2 9v7l-2 6h-1l-3-15z" fill="#415154"/>
<path transform="translate(1252,206)" d="m0 0 5 1 3 2v-3l3 1h-2v4l3 1h-4l1 6h-6l-2-5h-2z" fill="#D8EBF3"/>
<path transform="translate(834,351)" d="m0 0h2l-1 4-6 7-6 10-6 17 3 2h-7l2-1 1-7 5-13 10-16z" fill="#C3DFEA"/>
<path transform="translate(371,329)" d="m0 0 2 1-3 9-4 3v5l-4-2v-7l2-5z" fill="#FBAD65"/>
<path transform="translate(1085,205)" d="m0 0 1 3-1 6-5 10-6 1 2-8 2-5h3z" fill="#374A53"/>
<path transform="translate(696,117)" d="m0 0 5 1 2 1-1 4-7 6-6 1 1-5 4-4-2-1z" fill="#C7E1EC"/>
<path transform="translate(896,829)" d="m0 0 5 1 5 2 16 2-4 2-1 2h-8l-12-5v-2l-3-1z" fill="#889E9F"/>
<path transform="translate(1147,817)" d="m0 0h23l30 3v1h-17l-32-2z" fill="#48606D"/>
<path transform="translate(895,295)" d="m0 0 8 1 20 7 8 6v4l-5-2-7-5v-2l-5-1-19-7z" fill="#B1CCD7"/>
<path transform="translate(1515,249)" d="m0 0h1v8l3 12 5 9v2l-4-2-4-6-3-8-1-9 2-5z" fill="#EDF5F7"/>
<path transform="translate(925,759)" d="m0 0 3 1v14l-3 6-2-1-1-3v-7z" fill="#C8DEE7"/>
<path transform="translate(920,334)" d="m0 0 3 1-3 1-2 5-9 6-13 7-6 7-1 2h-2l2-6 8-7 17-9 3-6z" fill="#BAD9E6"/>
<path transform="translate(621,288)" d="m0 0 5 2-1 2-6 1-2 6-4-2-5 1-1 3-4-1 2-5 3-2h8l1-3z" fill="#3898AE"/>
<path transform="translate(921,161)" d="m0 0 2 1-5 4-24 15-14 9v-3l11-7 14-9z" fill="#FE096F"/>
<path transform="translate(776,38)" d="m0 0h21l3 2v2h-19l-9 1v-3z" fill="#405B6F"/>
<path transform="translate(259,832)" d="m0 0h20l13 1 8 2v1h-14l-27-2z" fill="#8DA3A2"/>
<path transform="translate(1275,823)" d="m0 0 16 1 27 3v1h-19l-31-3v-1z" fill="#4070AA"/>
<path transform="translate(874,291)" d="m0 0h2l3 6 1 4-4-1v-2l-4 1v7h2v4l-4-1-2-2h-3l5-10z" fill="#B8D5E2"/>
<path transform="translate(121,376)" d="m0 0h5l6 5 15 1v1h-16l5 8v2h-4l-3-7-8-7z" fill="#FDD457"/>
<path transform="translate(592,258)" d="m0 0 1 2-4 10-5 11-3 3-2 5-1-4 6-15 6-10z" fill="#528998"/>
<path transform="translate(749,187)" d="m0 0 4 1v4l-9 7-5-1v-4l5-2v-2z" fill="#263840"/>
<path transform="translate(1397,751)" d="m0 0 3 1v11l-2 7-3 1-1-4v-8z" fill="#BBC7CF"/>
<path transform="translate(684,241)" d="m0 0h3l-1 10-4 8-4 5h-3l2-6 4-7z" fill="#40535A"/>
<path transform="translate(892,242)" d="m0 0 5 5v3h3l-2 4-7 6-6 1 4-4 6-4 1-2-9 6-2-1 7-5-1-5v-3z" fill="#3E76B7"/>
<path transform="translate(872,150)" d="m0 0h7l3 1v2l-22 1h-20v-1l16-2z" fill="#657D8C"/>
<path transform="translate(587,354)" d="m0 0 4 1 10 16 3 9 1 4h-2l-10-19-6-9z" fill="#577482"/>
<path transform="translate(202,273)" d="m0 0 11 1 8 4 5 6-3 1-12-7-10-3z" fill="#0A8852"/>
<path transform="translate(1261,236)" d="m0 0 7 1 1 6-1 3h-6l-4-4 1-5z" fill="#FD0A6F"/>
<path transform="translate(457,759)" d="m0 0 3 2v11l-2 7h-3l-1-2 1-13z" fill="#BBC8D0"/>
<path transform="translate(808,315)" d="m0 0 5 1 3 4 1 9v11h-2l-1-11-3-6-2-1-2-6z" fill="#A9C3CA"/>
<path transform="translate(574,301)" d="m0 0h1l-2 29-2-3-2 2v-11l2-11 2-3z" fill="#578A99"/>
<path transform="translate(398,259)" d="m0 0h13l9 7 2 5-16-8-8-3z" fill="#0D7F4F"/>
<path transform="translate(386,201)" d="m0 0 5 1v7l-5 6-3-1-1-7z" fill="#FDE788"/>
<path transform="translate(888,112)" d="m0 0 4 5 14 9 15 10-2 1-20-11-9-7-2-3z" fill="#3F535E"/>
<path transform="translate(831,841)" d="m0 0 40 2v1l-6 1h-15l-28-2v-1z" fill="#CCE0E8"/>
<path transform="translate(655,824)" d="m0 0 4 3 3 1 57 5-4 2-57-5-3-3z" fill="#869EA2"/>
<path transform="translate(1155,374)" d="m0 0h20l1 3-2 1v1h-15l-2-2z" fill="#C6E0E9"/>
<path transform="translate(776,259)" d="m0 0 1 4-3 2h7l-3 2-7 2h-7l-5-2 4-2 11-5z" fill="#C6E3EF"/>
<path transform="translate(216,830)" d="m0 0 18 1 19 2v2l-23-1-12-1-2-1z" fill="#BECDD5"/>
<path transform="translate(619,228)" d="m0 0 5 3 7 10 9 10 2 4-4-2-9-9h-2l-2-6-5-5z" fill="#4F7F96"/>
<path transform="translate(1305,339)" d="m0 0h3l6 21 1 6-2 1-3-6-3-12-2-5z" fill="#23353F"/>
<path transform="translate(710,120)" d="m0 0 1 4-5 6-12 8-6 3 1-3 10-8 3-1 2-4z" fill="#EDF3F4"/>
<path transform="translate(1210,825)" d="m0 0h32l7 1v1h-8v2l-25-2-6-1z" fill="#D0DCE0"/>
<path transform="translate(354,320)" d="m0 0 2 1-1 7-3 8-4 2-1-3 3-12h3z" fill="#FDE8A8"/>
<path transform="translate(458,178)" d="m0 0 1 3-1 1h-30l1-2 9-1z" fill="#FDF2D8"/>
<path transform="translate(815,159)" d="m0 0 3 1-5 5-7 8-2 3-1 12-4-5 2-9 7-8z" fill="#91AAA9"/>
<path transform="translate(1106,327)" d="m0 0 2 3 4 10 3 5v4h-5l-1-1-1-7-3-9z" fill="#354549"/>
<path transform="translate(347,140)" d="m0 0h14l-4 2-1 7h-3l-1 2-5-7z" fill="#FDE789"/>
<path transform="translate(1186,329)" d="m0 0 4 2 6-2-2 6-3 7-1-2-6-1z" fill="#ADE0F9"/>
<path transform="translate(186,390)" d="m0 0h11l5 3-4 6-5-1-4-5-3-1z" fill="#FCD960"/>
<path transform="translate(813,313)" d="m0 0 4 3 8 2 21 1v1l-20 1-4 2-6-1-3-5-2-2h2z" fill="#CDD6CE"/>
<path transform="translate(704,258)" d="m0 0 1 4-8 16-5 7-2-1 1-4 6-10z" fill="#2B3E48"/>
<path transform="translate(426,183)" d="m0 0 2 1 1 22h-8v-1h7l-1-2-12 1 4-2 5-4 1-2z" fill="#FDE9BC"/>
<path transform="translate(1307,313)" d="m0 0 7 2 5 2-4 1v2h-6l-3-2v2l-4 2v-6z" fill="#B4CFDA"/>
<path transform="translate(909,166)" d="m0 0m-1 1m-2 1h2l-1 3-15 9-9 6-4 2 1-4 11-7z" fill="#FF941C"/>
<path transform="translate(361,370)" d="m0 0 5 2 10 6v1l-5 1h-8z" fill="#FDFAF2"/>
<path transform="translate(801,314)" d="m0 0h10l-3 3 1 5 3 1 1 5-3-3-5-2v5l-2-4z" fill="#C5E2F0"/>
<path transform="translate(385,312)" d="m0 0 1 2v4l3 2-6-1v2h-2l1 4h-2l-1 5-3 1v-5l-3-1 3-1 3-6 3-3h2z" fill="#FEDB59"/>
<path transform="translate(242,268)" d="m0 0 5 1 9 6-3 1-7-3v-2h-3l-2 5-5 9-3 1 1-4z" fill="#FDFBF6"/>
<path transform="translate(870,207)" d="m0 0 2 3-8 19-3 1-1-5 4-6 4-9z" fill="#CCE5EE"/>
<path transform="translate(824,287)" d="m0 0h17l5 3v2l-7-2h-5l-6 4-2-1v-2l-3-1z" fill="#BDD5DF"/>
<path transform="translate(804,239)" d="m0 0 2 1-1 2h-2l-2 7h-2v2l-10 3-3-1 12-9z" fill="#C8E2EC"/>
<path transform="translate(897,111)" d="m0 0 5 1 4 5v3l-4 1-9-6 1-3z" fill="#BFE1F0"/>
<path transform="translate(344,296)" d="m0 0h3l6 14v3l-5-1v-2l-3-1z" fill="#FE9615"/>
<path transform="translate(872,298)" d="m0 0h4v2h6l3 2 7 1-4 2-2 2-6-3h-7l-1 2-1-7z" fill="#D8EBF2"/>
<path transform="translate(1082,273)" d="m0 0 4 1v2l-6 5-2 3h-6l-1-2 7-7z" fill="#93A8A3"/>
<path transform="translate(782,49)" d="m0 0 25 5h7v3h-10l-16-4-6-3z" fill="#445965"/>
<path transform="translate(659,233)" d="m0 0h3l-1 7-7 9-4-1v-3l5-5z" fill="#384B54"/>
<path transform="translate(234,830)" d="m0 0h24l10 1v1l-9 1h-13l-12-1z" fill="#89A0A2"/>
<path transform="translate(1406,786)" d="m0 0h1v6l-5 13-5 6-1-2 3-6 3-9 3-7z" fill="#1A2A32"/>
<path transform="translate(1264,210)" d="m0 0h11v1h18l-1 3h-21l-7-2z" fill="#445862"/>
<path transform="translate(674,138)" d="m0 0 5 5-2 4-8 3h-4l-1 2v-3h4l1-5z" fill="#C1DDE9"/>
<path transform="translate(741,331)" d="m0 0 5 1 2 7v8l-3 3 1-10-5-1-2-4h4z" fill="#B4D1DD"/>
<path transform="translate(1459,306)" d="m0 0 2 2-6 9-6 12-2-2 3-9 6-10z" fill="#A4E0FE"/>
<path transform="translate(1393,219)" d="m0 0 2 1v17l-4-1-1-4v-7z" fill="#B7D1DC"/>
<path transform="translate(862,200)" d="m0 0 1 3-5 13-1 2-3-1 1-7 4-9z" fill="#CCE5EE"/>
<path transform="translate(874,308)" d="m0 0 1 2 14 3 17 7 1 2-10-3-13-5h-3l-2 2-8-5 3-1z" fill="#CCE5EE"/>
<path transform="translate(1284,216)" d="m0 0 5 1 2 3-1 5-4 2-4-4 1-6z" fill="#C3E2F0"/>
<path transform="translate(778,150)" d="m0 0 7 1 7 2 1 2h-5v2l-10-1z" fill="#536974"/>
<path transform="translate(481,322)" d="m0 0h1v19l-7-1v-1l5-1v-3l-7-1-1-3h7v-6h2z" fill="#FECC3C"/>
<path transform="translate(735,164)" d="m0 0 9 2 3 7 4 1-2 1-1 3-1-2-4-2-8-9z" fill="#B8C7CF"/>
<path transform="translate(773,131)" d="m0 0 13 2 11 2-1 4-17-3v-2l-6-1z" fill="#2A3C46"/>
<path transform="translate(1238,301)" d="m0 0v3l-5 7-2 7-1-2-9 3 2-4z" fill="#AFDFF6"/>
<path transform="translate(478,322)" d="m0 0 2 4v1l-6 2-2 2-5-1-1-5 5-1 4 1v-2zm-16 4 4 1-3 1z" fill="#FDBC67"/>
<path transform="translate(938,312)" d="m0 0h2l-1 4-7 9-4 2-1 4-3 3v-3-3l5-4 3-3 1-5 4-2z" fill="#B4D2DF"/>
<path transform="translate(690,121)" d="m0 0 2 1-12 12-1 4v2l4 1-3 2-4-1-1-6 4-5 8-7z" fill="#CDDFE6"/>
<path transform="translate(889,95)" d="m0 0 5 1 11 9 8 8-1 2-6-5-8-7-9-7z" fill="#2C3D45"/>
<path transform="translate(894,90)" d="m0 0 7 4 8 7 6 8-1 2-15-15-7-4z" fill="#B4D1DE"/>
<path transform="translate(778,307)" d="m0 0h16l-2 2-10 2h-14v-2z" fill="#78B5FD"/>
<path transform="translate(782,256)" d="m0 0 3 3v5l-8 2-4-1 3-2 2-5z" fill="#B3CED9"/>
<path transform="translate(828,169)" d="m0 0h4l-1 6-3 4-8-1v-2l4-3h3z" fill="#627A86"/>
<path transform="translate(910,135)" d="m0 0 6 2 10 9 3 6-2 4-3-9-13-8-2-1z" fill="#657C88"/>
<path transform="translate(890,236)" d="m0 0h4l6 9v2h2l-2 4-3-1-4-7h-2v-5z" fill="#65A7F5"/>
<path transform="translate(767,207)" d="m0 0 3 1-2 3h-2l1 4-5 5h-3v-3l-2-1 8-7h2z" fill="#556E7A"/>
<path transform="translate(246,379)" d="m0 0v3l-11 13-3 4h-2l-2 4-4 1 6-8 11-11z" fill="#212833"/>
<path transform="translate(897,274)" d="m0 0h5l-3 2h-3v2l-12 6-7 7h-2l2-4 8-7z" fill="#B8DFF1"/>
<path transform="translate(704,132)" d="m0 0h6l-2 4-2-2h-2v2l-8 6-7 4-3-1 11-8h2v-2z" fill="#ADCAD4"/>
<path transform="translate(704,121)" d="m0 0 1 4-5 5-9 8-9 6-3-1 11-8 11-9z" fill="#3B4F5A"/>
<path transform="translate(788,73)" d="m0 0 7 1 15 3-3 1v2l-14-2-4-2 1-1z" fill="#A6E1FF"/>
<path transform="translate(378,374)" d="m0 0 13 1 7 3-2 4-5 2-3-1 5-5-11-1-4-2z" fill="#FCD66A"/>
<path transform="translate(1092,268)" d="m0 0h8l1 3-22 3 3-3z" fill="#BAC7CF"/>
<path transform="translate(597,247)" d="m0 0 2 1-4 6 4-3-1 4-6 10h-2l2-6-3 2 1-5z" fill="#627C8A"/>
<path transform="translate(930,144)" d="m0 0 2 3 2 8-1 3h2v-5h1v6h-3v3l3-1v2l-5 2-3-7 1-4 2 2-1-8-1-3z" fill="#B4CFD9"/>
<path transform="translate(809,61)" d="m0 0 11 1v4l3 1h-15z" fill="#7893A1"/>
<path transform="translate(1385,706)" d="m0 0v3l-7 10-5 13-2 7h-1l1-9 5-13 4-7z" fill="#172730"/>
<path transform="translate(137,496)" d="m0 0 3 1 1 7 1 1h8v4h-11z" fill="#0D985A"/>
<path transform="translate(166,362)" d="m0 0h3l-1 6-1 9-4-1v-8l1-4h2z" fill="#FEC10B"/>
<path transform="translate(918,252)" d="m0 0 9 1 8 4 4 5-2 10h-1v-11l-3-1-3-3-12-4z" fill="#B1DEF3"/>
<path transform="translate(877,251)" d="m0 0 6 3v4l10-6 3-1-2 4-8 5-1 3-3-1v-2l-5-6z" fill="#9BD9FC"/>
<path transform="translate(809,241)" d="m0 0 2 1-5 6-1 2h-2l-1 3-6 4h-3l1-5 5-1v-2l6-4 4-2z" fill="#B4CFDA"/>
<path transform="translate(829,235)" d="m0 0 2 1-1 4-8 4-4-1 1-5 5-1z" fill="#AFDAEE"/>
<path transform="translate(1226,819)" d="m0 0h20l9 1 5 2v1l-16-1-18-2z" fill="#3B4C51"/>
<path transform="translate(256,353)" d="m0 0h4l-2 4-9 9h-2v2l-4-1 5-6 7-6z" fill="#FEDFA7"/>
<path transform="translate(832,253)" d="m0 0 7 2v1l-16 3-9 1 4-4z" fill="#E3DBCA"/>
<path transform="translate(673,213)" d="m0 0h2v21l-3 3v-16z" fill="#2A3B45"/>
<path transform="translate(1249,195)" d="m0 0 16 3v1h-6l1 4-10-2-1-1z" fill="#446480"/>
<path transform="translate(454,414)" d="m0 0 4 1 9 6v4l-5-1-9-8z" fill="#00FD52"/>
<path transform="translate(601,373)" d="m0 0 4 5 7 16-1 3-2-4v-3l-1 5-2-3-3-12-2-4z" fill="#668998"/>
<path transform="translate(158,332)" d="m0 0 2 1v9h-1l-1-5-4 2-1 7-2-2-2 6-1-4 4-11h3z" fill="#FDE89A"/>
<path transform="translate(203,330)" d="m0 0 2 1-3 3h-2l-2 4-16 16v-3l7-8 9-8z" fill="#FDDB58"/>
<path transform="translate(1517,248)" d="m0 0 4 1 6 9 3 11v11l-1 2-2-1 1-2v-8l-4-12-5-8v-2z" fill="#5AA3FE"/>
<path transform="translate(1294,235)" d="m0 0 6 1v8l-1 1h-5l-1-7z" fill="#6A8190"/>
<path transform="translate(899,151)" d="m0 0 2 2v8l-3 6-4 1v-8l4-2z" fill="#273538"/>
<path transform="translate(750,835)" d="m0 0h20l12 1v1l-9 1h-9l-11-1z" fill="#D7E7ED"/>
<path transform="translate(399,305)" d="m0 0 5 1v3l-3 2-12 1 2-4 8-1z" fill="#F1F6F4"/>
<path transform="translate(347,296)" d="m0 0 7 1 3 2v2l4 1-8 2-4-1z" fill="#FDCF20"/>
<path transform="translate(277,168)" d="m0 0 3 1 7 21-1 3-9-20z" fill="#192931"/>
<path transform="translate(351,151)" d="m0 0 2 1-10 10 2 11-4-2-2-7 1-4h2z" fill="#FDE7A1"/>
<path transform="translate(763,115)" d="m0 0 1 2-5 12h-2l1 4-3-3v-6z" fill="#C5E4EE"/>
<path transform="translate(698,362)" d="m0 0h3l-2 5-8 10h-3l1-4z" fill="#2D404B"/>
<path transform="translate(1331,345)" d="m0 0h8l-1 5-9 3-2-1 2-4z" fill="#CEE1E8"/>
<path transform="translate(920,328)" d="m0 0h5v3l-2 3-6 2h-4l2-4z" fill="#FBFDFD"/>
<path transform="translate(349,312)" d="m0 0 4 2v4l4 2v6h-1l-1-5-2 2h-3v4l-3 1 1-6 2-4z" fill="#FDE280"/>
<path transform="translate(825,299)" d="m0 0h9l9 1 3 3v3h-2l-1-4h-16l-3 3-1-4z" fill="#BAB198"/>
<path transform="translate(669,245)" d="m0 0 4 1-2 5-4 6-4 1v-4l4-5z" fill="#30434E"/>
<path transform="translate(725,103)" d="m0 0h2l3 4-6 10-2 1-1-6z" fill="#B4D7E1"/>
<path transform="translate(823,46)" d="m0 0 6 1 9 6 2 4-4-1-9-5v-2l-4-2z" fill="#507281"/>
<path transform="translate(1133,809)" d="m0 0h16l12 2v1h-30z" fill="#4C626A"/>
<path transform="translate(582,281)" d="m0 0 1 3-5 15-3 15h-1v-8l3-13 4-11z" fill="#7893A1"/>
<path transform="translate(806,839)" d="m0 0h9l16 2v1h-20l-11-1v-1z" fill="#E2EBEF"/>
<path transform="translate(743,831)" d="m0 0 18 1 6 1v1h-21l-13-1v-1z" fill="#556F7D"/>
<path transform="translate(678,652)" d="m0 0 19 1 1 3h-20z" fill="#8CC5FB"/>
<path transform="translate(777,120)" d="m0 0 22 4 1 2h-11l-11-3z" fill="#E7EDEF"/>
<path transform="translate(840,59)" d="m0 0h1v7l-10 1v-6z" fill="#BDDEEC"/>
<path transform="translate(1300,341)" d="m0 0 4 2 3 10v6h-2l-3-9-2-5z" fill="#243640"/>
<path transform="translate(1306,318)" d="m0 0 6 2 2 1-1 4h-5l-2-2-4 2-1-4 5-1z" fill="#E2F0F5"/>
<path transform="translate(332,292)" d="m0 0 3 1 1 14-2 7h-1z" fill="#FD714B"/>
<path transform="translate(1275,209)" d="m0 0h18l-1 3h-18z" fill="#13232E"/>
<path transform="translate(749,183)" d="m0 0h3l-2 4-4 3h-2v2l-6 4h-2l1-4z" fill="#E7EEF0"/>
<path transform="translate(819,153)" d="m0 0 3 1-5 5-8 7-4 5-2-1 4-6 10-10z" fill="#FBD6A0"/>
<path transform="translate(1310,346)" d="m0 0 5 3 1 4h6l-1 3-8 2-3-9z" fill="#CFE5EE"/>
<path transform="translate(730,329)" d="m0 0 4 2 1 4h-5l-2-2-2 2-4-1-1-3z" fill="#6EAEFA"/>
<path transform="translate(933,799)" d="m0 0h1l-1 7-5 10-2-3 1-4 5-9z" fill="#192933"/>
<path transform="translate(898,397)" d="m0 0 5 1v9l-7-3v-5z" fill="#CCE5EE"/>
<path transform="translate(1115,346)" d="m0 0 5 5 4 6-9-3-4-5h4z" fill="#7E969F"/>
<path transform="translate(927,319)" d="m0 0h5l1 2-4 4-7 2v-4z" fill="#FDFEFE"/>
<path transform="translate(1283,239)" d="m0 0h11l-1 3h-19l-1-2z" fill="#465E6A"/>
<path transform="translate(677,228)" d="m0 0h1v10l-3 12-2 2-4 1 4-8 3-8z" fill="#E1ECF1"/>
<path transform="translate(871,166)" d="m0 0 3 1-3 3-2 10-3 3v-11l2-4z" fill="#B2CDD8"/>
<path transform="translate(380,92)" d="m0 0h5v5l-5 3h-2l-1 2-1-4 2-5z" fill="#FDDFAF"/>
<path transform="translate(1324,834)" d="m0 0h17l-4 3h-17z" fill="#C6DCE5"/>
<path transform="translate(1389,702)" d="m0 0h8l7 6 2 5-4-2-4-5v-2h-7l-8 4 1-3z" fill="#1A2A34"/>
<path transform="translate(165,385)" d="m0 0 5 2 4 4v3h-6l-3-5z" fill="#FDFEFE"/>
<path transform="translate(704,262)" d="m0 0h2l-1 6-7 13-4 1 2-4z" fill="#E0E7EB"/>
<path transform="translate(896,370)" d="m0 0h2v12l-1 5-4-1z" fill="#12A659"/>
<path transform="translate(651,189)" d="m0 0h1v14l-2 2-2-2v-9z" fill="#283942"/>
<path transform="translate(721,121)" d="m0 0 5 2-1 5-11 2 6-8z" fill="#079356"/>
<path transform="translate(721,113)" d="m0 0h1l1 6-4 4-3 1h-3l2-4z" fill="#6E8A98"/>
<path transform="translate(699,830)" d="m0 0h10l11 1 2 3-23-2z" fill="#C6DDE6"/>
<path transform="translate(881,386)" d="m0 0h12l4 1v2l3 1-7 1-7-3-5-1z" fill="#C5E4F0"/>
<path transform="translate(151,383)" d="m0 0 4 1-3 4-7 2h-5l1-3z" fill="#FDF2D4"/>
<path transform="translate(1312,334)" d="m0 0 1 2-1 2 3 1-2 1 1 3-2 3h-3l-1-9z" fill="#A8E0FD"/>
<path transform="translate(1337,315)" d="m0 0h2l5 14v3l-3-1-4-11v-3l-3-1z" fill="#43565B"/>
<path transform="translate(1327,307)" d="m0 0h2l1 3-3 1-3 5h6l-2 4h-4l-2-3 1-6z" fill="#B6D5E3"/>
<path transform="translate(577,289)" d="m0 0 1 4-4 11-1 5-2-2 2-11 2-6z" fill="#648291"/>
<path transform="translate(1093,188)" d="m0 0h3v2h2l-1 5-2 2v-2l-4-1-3 1 2-5z" fill="#3E5560"/>
<path transform="translate(667,151)" d="m0 0h9v2l3 2-11 1-2 2-1-6z" fill="#BAD8E4"/>
<path transform="translate(1138,149)" d="m0 0 4 2 4 5h-2v4h-2v10h-1l-2-17z" fill="#BEE1F0"/>
<path transform="translate(886,104)" d="m0 0 6 2 2 1v2l-3 2-2 3-2 1-1-2z" fill="#B2CDD8"/>
<path transform="translate(1149,820)" d="m0 0 12 1v2h-18l-5-1v-1z" fill="#ABBCBF"/>
<path transform="translate(1371,811)" d="m0 0 5 2-1 5-3 2h-4l1-6z" fill="#3F5763"/>
<path transform="translate(1382,706)" d="m0 0v3l-6 10-5 12-1-4 5-12 4-6z" fill="#FEB439"/>
<path transform="translate(243,264)" d="m0 0h2v2l-2 1-6 12-2 3h-2l1-5 7-11z" fill="#FDE692"/>
<path transform="translate(1493,255)" d="m0 0h5l-2 7-1-4-14 4-3-1 12-5z" fill="#76B4F5"/>
<path transform="translate(809,195)" d="m0 0 11 2-2 9-9-9z" fill="#508B9E"/>
<path transform="translate(755,193)" d="m0 0h3l-1 4-5 4h-2v2l-5 1 2-4 5-4h2z" fill="#2F424C"/>
<path transform="translate(367,285)" d="m0 0 4 2 5 2h2v2h7v1l-11 1-6-4z" fill="#192931"/>
<path transform="translate(805,250)" d="m0 0 2 1-4 18h-3l4-18z" fill="#FE096F"/>
<path transform="translate(1306,833)" d="m0 0h14l4 2-1 1h-13l-4-1z" fill="#EFF5F7"/>
<path transform="translate(907,276)" d="m0 0 6 2 8 4 6 1v1h-10l-8-4z" fill="#A6C1CD"/>
<path transform="translate(1271,244)" d="m0 0h15l1 3h-14l-2-1z" fill="#445B66"/>
<path transform="translate(926,133)" d="m0 0 4 5 5 13v7h-2l-1-8-5-12z" fill="#688F9D"/>
<path transform="translate(1299,63)" d="m0 0v3l-1 1h-19v-2l16-1z" fill="#667B8A"/>
<path transform="translate(219,828)" d="m0 0h12l13 1v1l-10 1h-11v-2z" fill="#829BA1"/>
<path transform="translate(332,339)" d="m0 0 2 1-9 10-3 1 1-5 3-3z" fill="#FDE0B1"/>
<path transform="translate(903,267)" d="m0 0h2l2 3 1 6-2 1h-10l4-4h4z" fill="#CCE5EE"/>
<path transform="translate(328,255)" d="m0 0h2l3 12v12h-1l-4-20z" fill="#F9D17D"/>
<path transform="translate(763,173)" d="m0 0 7 4 6 7 2 6-5-5-8-9-2-1z" fill="#677D8C"/>
<path transform="translate(1052,420)" d="m0 0 2 3 3 11v4h-2l-3-8z" fill="#FDDE60"/>
<path transform="translate(788,306)" d="m0 0h7l3 5-11 1-3-3 8-1z" fill="#93CDFF"/>
<path transform="translate(869,300)" d="m0 0 3 3v3h2v4l-4-1-2-2h-3l2-4z" fill="#AFCAD5"/>
<path transform="translate(621,288)" d="m0 0 5 2-1 2-6 1-2 6-2-1 1-7z" fill="#3F93C1"/>
<path transform="translate(1085,205)" d="m0 0 1 3-1 6-4 8-2-3 3-9z" fill="#4F6A7A"/>
<path transform="translate(730,556)" d="m0 0 5 5 6 10 1 4-2 2-3-8-7-11z" fill="#72B3FE"/>
<path transform="translate(174,346)" d="m0 0 1 4-2 4-4 1-2-5 3-3h3z" fill="#BC6132"/>
<path transform="translate(700,279)" d="m0 0 1 4-7 9-2-1 1-4 4-6z" fill="#2C3F49"/>
<path transform="translate(810,247)" d="m0 0 2 1-3 11-2-2-2 3 1-9-1-2z" fill="#F2BF82"/>
<path transform="translate(330,244)" d="m0 0 4 5 6 13-1 2-3-2-6-15z" fill="#FF980A"/>
<path transform="translate(683,242)" d="m0 0 1 4-5 10-4 2 2-6 3-8 2 1z" fill="#CCD8DC"/>
<path transform="translate(195,221)" d="m0 0 2 1-6 6 1 8 1 3 2 2-4-1-3-4 1-9z" fill="#FDE6B0"/>
<path transform="translate(217,200)" d="m0 0 2 1-6 6-18 1-1 3-1-5 19-1z" fill="#FDE4A4"/>
<path transform="translate(776,43)" d="m0 0h8l-1 6-5-1-6-3z" fill="#C2DCE6"/>
<path transform="translate(698,370)" d="m0 0h2l-1 6-6 6h-2l1-4z" fill="#1E2F39"/>
<path transform="translate(354,320)" d="m0 0 2 1-1 7-4 6h-1l1-8z" fill="#FDFEFE"/>
<path transform="translate(373,300)" d="m0 0 6 1 6 3v1h-7l-3 1zm1 6m-1 1m-2 1 2 1-2 1z" fill="#FECC3F"/>
<path transform="translate(1291,287)" d="m0 0 2 1h7l2 3-6 2-5-1z" fill="#677B87"/>
<path transform="translate(1113,264)" d="m0 0h9l-5 6-2-1 2-3-20 1v-1z" fill="#849DA8"/>
<path transform="translate(852,256)" d="m0 0 5 1 3 2-1 5-9-3 2-1z" fill="#EFD6AB"/>
<path transform="translate(337,220)" d="m0 0 4 1 5 6 4 6v2h-2l-3-5-5-5v-3l-3-1z" fill="#FDE59E"/>
<path transform="translate(786,227)" d="m0 0 3 1-2 5-3 6-4-1 1-3h2l1-5z" fill="#C2E2EC"/>
<path transform="translate(866,130)" d="m0 0 6 5 4 2v2l-5-1-9-4 4-2z" fill="#FFCB5D"/>
<path transform="translate(296,834)" d="m0 0h10l9 1v2h-15v-2z" fill="#879FA2"/>
<path transform="translate(346,370)" d="m0 0 3 1-4 3h-3v2l-5 1v-4l3-2z" fill="#FDF4DA"/>
<path transform="translate(906,324)" d="m0 0 7 1 6 2-1 2-9-1-5-2z" fill="#7893A1"/>
<path transform="translate(396,282)" d="m0 0 16 1-3 2h-9v2l-5-2z" fill="#FDD852"/>
<path transform="translate(707,173)" d="m0 0 1 2 4 1v2h3l-1 4-8-3v-5z" fill="#C7E1EB"/>
<path transform="translate(773,136)" d="m0 0 14 2 1 3h-7l-8-2z" fill="#394D57"/>
<path transform="translate(175,390)" d="m0 0 14 6 6 2-4 2-6-2-10-6z" fill="#FDC458"/>
<path transform="translate(138,388)" d="m0 0h2v2h5l2 4h-10v-4z" fill="#FBD575"/>
<path transform="translate(913,315)" d="m0 0 8 1 5 2-3 3-11-4z" fill="#7893A1"/>
<path transform="translate(243,311)" d="m0 0 4 2-1 2-8 1-11 3-3-1 18-6z" fill="#FDE07B"/>
<path transform="translate(677,250)" d="m0 0 1 2-5 8-4 1 2-5 2-4z" fill="#293A44"/>
<path transform="translate(1088,222)" d="m0 0 4 1-10 5-7 1v-2z" fill="#B8D3DE"/>
<path transform="translate(314,214)" d="m0 0h2l1 2h4v5l-5 2v-5l-4-1z" fill="#6E4D41"/>
<path transform="translate(754,178)" d="m0 0 5 5-1 2-4 1-2 2-2-2 2-3-2-1z" fill="#B4C4CC"/>
<path transform="translate(904,126)" d="m0 0 5 2 12 8-2 1-16-9z" fill="#4D626C"/>
<path transform="translate(655,402)" d="m0 0 3 1v3l-5 3h-6l5-5z" fill="#263B49"/>
<path transform="translate(587,354)" d="m0 0 4 1 5 8v2l-4-1-5-8z" fill="#5B7482"/>
<path transform="translate(1110,266)" d="m0 0h7l-2 4h-10v-2z" fill="#BBC7CF"/>
<path transform="translate(827,227)" d="m0 0 5 1 1 5-8 2z" fill="#AFCEDC"/>
<path transform="translate(655,824)" d="m0 0 4 3 3 1 19 2v1h-10l-13-1-3-3z" fill="#98ACA9"/>
<path transform="translate(191,819)" d="m0 0 2 4 5 2 10 1-3 2h-8l-5-3-2-2z" fill="#8099A1"/>
<path transform="translate(153,361)" d="m0 0 3 1 2 7-2 6h-1l-2-10z" fill="#FED411"/>
<path transform="translate(1287,243)" d="m0 0 3 1-2 4h-6l-1 3-5-1-1-3h12z" fill="#B9D3DE"/>
<path transform="translate(698,367)" d="m0 0 3 2-1 4v-3h-2l-2 4-5 5-2-2 5-5z" fill="#B6C9D2"/>
<path transform="translate(878,347)" d="m0 0 13 1v2l-8 1-5-2z" fill="#96B1BD"/>
<path transform="translate(361,344)" d="m0 0 5 4-4 10h-1z" fill="#FEA307"/>
<path transform="translate(780,340)" d="m0 0 8 1v5l-5-1-3 1z" fill="#63A8FE"/>
<path transform="translate(216,214)" d="m0 0 4 5 1 4-6 4 1-9z" fill="#FDE595"/>
<path transform="translate(1149,179)" d="m0 0h1v17l-3 2-1-4 2-8z" fill="#46616F"/>
<path transform="translate(811,183)" d="m0 0h9l1 3-2 1h-7z" fill="#FD126F"/>
<path transform="translate(896,150)" d="m0 0 3 1v7l-4 3-2-5 3-1v-4z" fill="#657A89"/>
<path transform="translate(242,832)" d="m0 0 11 1v2l-23-1v-1z" fill="#C4D8E0"/>
<path transform="translate(873,374)" d="m0 0h1l-1 10h-6z" fill="#F7FBFD"/>
<path transform="translate(1342,372)" d="m0 0 6 1-3 3h-11l2-2z" fill="#687D8C"/>
<path transform="translate(1306,347)" d="m0 0 2 2 2 6v5l-4 1v-8l-1-5z" fill="#A1BECC"/>
<path transform="translate(369,344)" d="m0 0 2 1-3 10-2 2v8l-2-2v-9h2l1-4 1-5z" fill="#FDDF5E"/>
<path transform="translate(570,326)" d="m0 0 2 1v3l3 1 3 7 1 4-5-5-4-6z" fill="#546F7E"/>
<path transform="translate(332,315)" d="m0 0 2 4-6 10h-2l-1 3-1-2 4-7h2z" fill="#F96C5E"/>
<path transform="translate(867,318)" d="m0 0 5 2 3 1 4 1 5 4-5-1-7-1-5-4z" fill="#CCE5EE"/>
<path transform="translate(655,241)" d="m0 0 3 1-2 5-2 2-4-1v-3z" fill="#2B3C45"/>
<path transform="translate(891,168)" d="m0 0v3l-7 7h-2l-1 3-1-4z" fill="#667B8A"/>
<path transform="translate(827,162)" d="m0 0 7 1 1 4-9-1z" fill="#3C4F57"/>
<path transform="translate(1430,350)" d="m0 0v3l-12 6v-3z" fill="#A6E0FD"/>
<path transform="translate(920,334)" d="m0 0 3 1-3 1-2 5-5 4h-2l1-3 4-3 1-4z" fill="#B2CCD7"/>
<path transform="translate(371,329)" d="m0 0 2 1-3 7-3 2v-8zm-5 3m-2 1 2 1-2 1z" fill="#A54E49"/>
<path transform="translate(941,297)" d="m0 0 2 2v9l-2 5-2-1z" fill="#B6D9E9"/>
<path transform="translate(1260,206)" d="m0 0 3 1h-2v4l3 1h-4v5l-2-3-1-3-3-3 3-1 3 2z" fill="#A9CCDC"/>
<path transform="translate(748,195)" d="m0 0h3l-1 4-4 3-4-1 4-5z" fill="#E6EDEF"/>
<path transform="translate(650,178)" d="m0 0h1l-1 11-1 5-3 1 3-16z" fill="#E9F1F5"/>
<path transform="translate(677,146)" d="m0 0 2 1-1 3-13 2v-2z" fill="#FDFEFE"/>
<path transform="translate(705,138)" d="m0 0 1 2-9 7-5 3-3-1 13-9z" fill="#0EB269"/>
<path transform="translate(915,135)" d="m0 0 6 2 4 4v3l-4-2-7-5z" fill="#E2EBEE"/>
<path transform="translate(800,53)" d="m0 0 14 1v3h-10l-5-1z" fill="#4F6877"/>
<path transform="translate(657,820)" d="m0 0 2 3 3 3 3 2h-6l-5-2 1-5z" fill="#C4DDE6"/>
<path transform="translate(180,354)" d="m0 0v3l-8 6v-2l-2-1 6-5z" fill="#FEDF5D"/>
<path transform="translate(1298,347)" d="m0 0h4l1 6-1 2-4-2-1-5z" fill="#BEDCE9"/>
<path transform="translate(1305,339)" d="m0 0h3l2 10h-3l-2-5z" fill="#354955"/>
<path transform="translate(1329,321)" d="m0 0 3 1-3 2v2l5 2-1 3h-4l-2-4-2-2z" fill="#DEF0F6"/>
<path transform="translate(183,302)" d="m0 0 12 1v2l-10 1-3-1z" fill="#FAAA8E"/>
<path transform="translate(837,127)" d="m0 0 8 1-2 4-5 2z" fill="#FF9905"/>
<path transform="translate(939,770)" d="m0 0h1l-1 13-3-2 1-9z" fill="#1B2A32"/>
<path transform="translate(456,769)" d="m0 0 2 3v7h-3l-1-2v-6z" fill="#C7DDE6"/>
<path transform="translate(778,333)" d="m0 0 1 4 5-1v5h-3l-1 5h-1l-1-5z" fill="#98C9FD"/>
<path transform="translate(693,324)" d="m0 0h3l5 8 3 6-3-1-8-12z" fill="#E6F1F5"/>
<path transform="translate(863,308)" d="m0 0 3 3 1 7-4-1-2-5z" fill="#B3CED9"/>
<path transform="translate(833,236)" d="m0 0 10 1-4 3-8 1v-2h2z" fill="#F7F2E8"/>
<path transform="translate(776,185)" d="m0 0h3l5 10-1 3-5-6z" fill="#4F8795"/>
<path transform="translate(839,148)" d="m0 0 3 1-5 2v2l-5 2h-5l1-2 5-2h3v-2z" fill="#ACC6CE"/>
<path transform="translate(1250,123)" d="m0 0 1 3-6 8-3 1 2-5z" fill="#6C7D82"/>
<path transform="translate(710,120)" d="m0 0 1 4-5 5-4-2z" fill="#CAE2EB"/>
<path transform="translate(204,829)" d="m0 0h8l4 1v2h-11z" fill="#C1D1DA"/>
<path transform="translate(235,392)" d="m0 0v3l-3 4h-2l-2 4-4 1 5-7z" fill="#192932"/>
<path transform="translate(183,337)" d="m0 0 1 2-1 4h-2l-1 3h-1v-5h-2l1-3z" fill="#FEDE63"/>
<path transform="translate(782,307)" d="m0 0h12l-2 2-14 1 1-2z" fill="#5BA2FE"/>
<path transform="translate(356,281)" d="m0 0 2 2-5 3-5 1-2-2 6-3z" fill="#F5B975"/>
<path transform="translate(704,258)" d="m0 0 1 4-4 9-3-1 2-6z" fill="#374951"/>
<path transform="translate(1270,245)" d="m0 0 3 2h-2l-1 5h-5l-1-3 5-3z" fill="#C6DBE4"/>
<path transform="translate(286,211)" d="m0 0h2l1 10 1 3h-2v8h-1z" fill="#FEBC59"/>
<path transform="translate(685,149)" d="m0 0h3v2l-6 3h-8l2-2z" fill="#EDF5F8"/>
<path transform="translate(887,97)" d="m0 0 5 2 6 5-2 2-10-7z" fill="#22323B"/>
<path transform="translate(803,46)" d="m0 0 6 1 3 4-11-1z" fill="#677F89"/>
<path transform="translate(900,833)" d="m0 0 15 3 2 2h-8l-9-4z" fill="#7C96A1"/>
<path transform="translate(767,833)" d="m0 0 10 1v2l-19-1v-1z" fill="#5D7684"/>
<path transform="translate(1200,823)" d="m0 0h14l6 1v1l-13 1v-2h-7z" fill="#B6C9D0"/>
<path transform="translate(463,804)" d="m0 0 1 4-2 5h-5l4-8z" fill="#192932"/>
<path transform="translate(1402,798)" d="m0 0 1 4-4 7-3 2 2-6 3-6z" fill="#182833"/>
<path transform="translate(1385,706)" d="m0 0v3l-7 10h-2l2-6 5-5z" fill="#15252F"/>
<path transform="translate(170,387)" d="m0 0 5 2 1 3 2 2-1 1h-10v-3l7 2-3-5z" fill="#FCDE9B"/>
<path transform="translate(880,369)" d="m0 0 3 1-1 9h-2l-1-2v-7z" fill="#58FD9C"/>
<path transform="translate(1118,355)" d="m0 0 9 3 5 2-4 2-8-4z" fill="#678393"/>
<path transform="translate(727,332)" d="m0 0 5 2 3 1-4 1-1 3v-2l-4 1-2-3z" fill="#3A70B5"/>
<path transform="translate(1218,320)" d="m0 0 2 1-6 12-3 1 1-5z" fill="#C4DEE7"/>
<path transform="translate(379,288)" d="m0 0 12 1v2l-4 1-8-1z" fill="#E38C65"/>
<path transform="translate(885,280)" d="m0 0 2 1-10 10h-2l2-4z" fill="#BADDEC"/>
<path transform="translate(874,250)" d="m0 0h2l3 5 5 6-3 1-7-9z" fill="#64A9FE"/>
<path transform="translate(676,144)" d="m0 0 3 1-5 3-5 2h-4l-1 2v-3h4l1-3 5-1z" fill="#B2CCD7"/>
<path transform="translate(1252,115)" d="m0 0h2v2l-6 5-1 2h-2l-2 4h-2l2-4z" fill="#74868A"/>
<path transform="translate(469,779)" d="m0 0h1v9l-3 3-1-3z" fill="#172630"/>
<path transform="translate(894,333)" d="m0 0h6l10 3-2 2-12-3z" fill="#7893A1"/>
<path transform="translate(897,332)" d="m0 0 8 1 7 1-1 4-9-3-5-2z" fill="#B1CCD7"/>
<path transform="translate(350,303)" d="m0 0h3l3 6-1 4-1-3h-2l-2-4z" fill="#FEDA50"/>
<path transform="translate(894,254)" d="m0 0 3 1-8 6-4-1z" fill="#5FA1F6"/>
<path transform="translate(831,244)" d="m0 0h2l2 2 4-2h3l-1 3-10 2-1-4z" fill="#F1B876"/>
<path transform="translate(771,231)" d="m0 0 2 1-1 4 3 4v2l3 1-3 2-7-12z" fill="#B8DBEA"/>
<path transform="translate(773,131)" d="m0 0 13 2-3 3h-4v-2l-6-1z" fill="#3B4E58"/>
<path transform="translate(873,93)" d="m0 0 3 1 2 5-9-1z" fill="#D2D1C0"/>
<path transform="translate(822,62)" d="m0 0h9v5h-5v-4z" fill="#7893A1"/>
<path transform="translate(440,834)" d="m0 0h14v1h-5v3h-5l-1-2h-3z" fill="#8AA1A2"/>
<path transform="translate(934,729)" d="m0 0 3 3 2 5v3h-2l-1 3-2-10z" fill="#1A2A31"/>
<path transform="translate(1326,311)" d="m0 0h4l1 4-4 2-3-1z" fill="#E3F1F6"/>
<path transform="translate(158,296)" d="m0 0 4 1-7 4h-5v-2z" fill="#F9CC93"/>
<path transform="translate(918,252)" d="m0 0 9 1 8 4-2 2-8-4-7-2z" fill="#BBD6E1"/>
<path transform="translate(767,207)" d="m0 0 3 1-4 4-7 5-2-1 8-7h2z" fill="#3E525C"/>
<path transform="translate(1325,182)" d="m0 0h1v8l3 1-3 8h-1z" fill="#A5DDF8"/>
<path transform="translate(874,164)" d="m0 0 8 1-1 3-10-1-3 1v-3z" fill="#566971"/>
<path transform="translate(341,163)" d="m0 0 3 3 1 7-4-2-1-3z" fill="#FDE5B5"/>
<path transform="translate(675,136)" d="m0 0h2v2h2v2l4 1-3 2-4-1z" fill="#EEF5F8"/>
<path transform="translate(909,122)" d="m0 0 5 1 4 5v2h-2v-2l-5-2-3-3z" fill="#567684"/>
<path transform="translate(429,829)" d="m0 0 5 1 6 2v1h-10l-4-3z" fill="#849B9E"/>
<path transform="translate(1241,827)" d="m0 0h14l-4 1v2l-10-1z" fill="#EBF2F4"/>
<path transform="translate(1395,763)" d="m0 0h4l-1 7-3 1z" fill="#C8DFE8"/>
<path transform="translate(893,374)" d="m0 0 2 1-1 11-3-1z" fill="#00FD52"/>
<path transform="translate(366,346)" d="m0 0 2 4-2 5-4 3 3-10z" fill="#FED321"/>
<path transform="translate(468,324)" d="m0 0 4 1-1 4h-4l-1-4zm-6 2 4 1-3 1z" fill="#D66655"/>
<path transform="translate(894,251)" d="m0 0h2l-2 4-6 4h-3v-2z" fill="#C4E8FB"/>
<path transform="translate(632,245)" d="m0 0 4 2 6 7h-3l-7-7z" fill="#476679"/>
<path transform="translate(809,241)" d="m0 0 2 1-5 6-1 2h-2l-1 3-2-1 4-6 3-3h2z" fill="#C6E5F1"/>
<path transform="translate(1087,225)" d="m0 0m-2 1 2 1v2l-6 2-5-1 3-2z" fill="#C2DFEB"/>
<path transform="translate(771,147)" d="m0 0 5 1v5h-3l-2-2z" fill="#F52873"/>
<path transform="translate(706,133)" d="m0 0 2 1-2 4-6 4 1-4z" fill="#B3E3EF"/>
<path transform="translate(1269,128)" d="m0 0 5 2 2 2v5l-2-1-3-5-4 1z" fill="#BBC7CF"/>
<path transform="translate(695,121)" d="m0 0h4v2l-6 3-2 3h-2l1-4z" fill="#485D69"/>
<path transform="translate(299,828)" d="m0 0 8 1 1 2h-11l-2-2z" fill="#456474"/>
<path transform="translate(164,384)" d="m0 0 3 1h-2l2 9 4 2-7 1z" fill="#FCD16D"/>
<path transform="translate(717,368)" d="m0 0 4 5-1 6-4 3-2-1 5-6-2-4z" fill="#6F8592"/>
<path transform="translate(884,370)" d="m0 0h8l1 4-2 3-1-3-6-3z" fill="#0F794D"/>
<path transform="translate(824,365)" d="m0 0h2l-2 5-3 7h-2l1-5z" fill="#BFD9E3"/>
<path transform="translate(743,334)" d="m0 0 3 4v2l-5-1-2-4z" fill="#CCE5EE"/>
<path transform="translate(929,324)" d="m0 0 3 1-4 2-1 4-3 3v-3-3z" fill="#AAC4CF"/>
<path transform="translate(832,253)" d="m0 0 7 2v1l-14 1 3-3z" fill="#EDE6DA"/>
<path transform="translate(919,124)" d="m0 0 4 2 3 5-1 4-6-9z" fill="#547280"/>
<path transform="translate(897,111)" d="m0 0 5 1 4 5-1 2-6-5-3-2z" fill="#4B626F"/>
<path transform="translate(887,90)" d="m0 0 3 1-3 3-2 5h-3l1-5z" fill="#C2DFEB"/>
</svg>
